<?xml version="1.0" encoding="utf-8" standalone="no"?>
<!DOCTYPE svg PUBLIC "-//W3C//DTD SVG 1.1//EN"
  "http://www.w3.org/Graphics/SVG/1.1/DTD/svg11.dtd">
<svg xmlns:xlink="http://www.w3.org/1999/xlink" width="761.497578pt" height="636.304689pt" viewBox="0 0 761.497578 636.304689" xmlns="http://www.w3.org/2000/svg" version="1.1">
 <metadata>
  <rdf:RDF xmlns:dc="http://purl.org/dc/elements/1.1/" xmlns:cc="http://creativecommons.org/ns#" xmlns:rdf="http://www.w3.org/1999/02/22-rdf-syntax-ns#">
   <cc:Work>
    <dc:type rdf:resource="http://purl.org/dc/dcmitype/StillImage"/>
    <dc:date>2025-12-12T13:58:06.344372</dc:date>
    <dc:format>image/svg+xml</dc:format>
    <dc:creator>
     <cc:Agent>
      <dc:title>Matplotlib v3.10.7, https://matplotlib.org/</dc:title>
     </cc:Agent>
    </dc:creator>
   </cc:Work>
  </rdf:RDF>
 </metadata>
 <defs>
  <style type="text/css">*{stroke-linejoin: round; stroke-linecap: butt}</style>
 </defs>
 <g id="figure_1">
  <g id="patch_1">
   <path d="M 0 636.304689 
L 761.497578 636.304689 
L 761.497578 0 
L 0 0 
z
" style="fill: #ffffff"/>
  </g>
  <g id="axes_1">
   <g id="patch_2">
    <path d="M 593.477578 341.3815 
C 593.477578 304.97993 586.307262 268.932318 572.376985 235.301653 
C 558.446707 201.670987 538.027375 171.111298 512.287578 145.3715 
C 486.547781 119.631703 455.988091 99.212372 422.357426 85.282094 
C 388.72676 71.351816 352.679149 64.1815 316.277578 64.1815 
C 279.876008 64.1815 243.828397 71.351816 210.197731 85.282094 
C 176.567065 99.212372 146.007376 119.631703 120.267578 145.3715 
C 94.527781 171.111298 74.10845 201.670987 60.178172 235.301653 
C 46.247894 268.932318 39.077578 304.97993 39.077578 341.3815 
C 39.077578 377.78307 46.247894 413.830682 60.178172 447.461347 
C 74.10845 481.092013 94.527781 511.651702 120.267578 537.3915 
C 146.007376 563.131297 176.567065 583.550628 210.197731 597.480906 
C 243.828397 611.411184 279.876008 618.5815 316.277578 618.5815 
C 352.679149 618.5815 388.72676 611.411184 422.357426 597.480906 
C 455.988091 583.550628 486.547781 563.131297 512.287578 537.3915 
C 538.027375 511.651702 558.446707 481.092013 572.376985 447.461347 
C 586.307262 413.830682 593.477578 377.78307 593.477578 341.3815 
M 316.277578 341.3815 
C 316.277578 341.3815 316.277578 341.3815 316.277578 341.3815 
C 316.277578 341.3815 316.277578 341.3815 316.277578 341.3815 
C 316.277578 341.3815 316.277578 341.3815 316.277578 341.3815 
C 316.277578 341.3815 316.277578 341.3815 316.277578 341.3815 
C 316.277578 341.3815 316.277578 341.3815 316.277578 341.3815 
C 316.277578 341.3815 316.277578 341.3815 316.277578 341.3815 
C 316.277578 341.3815 316.277578 341.3815 316.277578 341.3815 
C 316.277578 341.3815 316.277578 341.3815 316.277578 341.3815 
C 316.277578 341.3815 316.277578 341.3815 316.277578 341.3815 
C 316.277578 341.3815 316.277578 341.3815 316.277578 341.3815 
C 316.277578 341.3815 316.277578 341.3815 316.277578 341.3815 
C 316.277578 341.3815 316.277578 341.3815 316.277578 341.3815 
C 316.277578 341.3815 316.277578 341.3815 316.277578 341.3815 
C 316.277578 341.3815 316.277578 341.3815 316.277578 341.3815 
C 316.277578 341.3815 316.277578 341.3815 316.277578 341.3815 
C 316.277578 341.3815 316.277578 341.3815 316.277578 341.3815 
z
" style="fill: #ffffff"/>
   </g>
   <g id="patch_3">
    <path d="M 538.037578 341.3815 
L 495.685187 211.034242 
L 384.805187 130.475207 
L 247.749969 130.475207 
L 136.869969 211.034242 
L 94.517578 341.3815 
L 226.573774 406.555129 
L 247.749969 552.287793 
L 384.805187 552.287793 
L 495.685187 471.728758 
z
" clip-path="url(#p99201439d6)" style="fill: #06a77d; opacity: 0.25; stroke: #06a77d; stroke-linejoin: miter"/>
   </g>
   <g id="matplotlib.axis_1">
    <g id="xtick_1">
     <g id="line2d_1">
      <path d="M 316.277578 341.3815 
L 593.477578 341.3815 
" clip-path="url(#p99201439d6)" style="fill: none; stroke-dasharray: 2.96,1.28; stroke-dashoffset: 0; stroke: #b0b0b0; stroke-opacity: 0.5; stroke-width: 0.8"/>
     </g>
     <g id="text_1">
      <!-- Data -->
      <g transform="translate(597.094609 338.264719) scale(0.11 -0.11)">
       <defs>
        <path id="TimesNewRomanPSMT-44" d="M 109 0 
L 109 116 
L 269 116 
Q 538 116 650 288 
Q 719 391 719 750 
L 719 3488 
Q 719 3884 631 3984 
Q 509 4122 269 4122 
L 109 4122 
L 109 4238 
L 1834 4238 
Q 2784 4238 3279 4022 
Q 3775 3806 4076 3303 
Q 4378 2800 4378 2141 
Q 4378 1256 3841 663 
Q 3238 0 2003 0 
L 109 0 
z
M 1319 306 
Q 1716 219 1984 219 
Q 2709 219 3187 728 
Q 3666 1238 3666 2109 
Q 3666 2988 3187 3494 
Q 2709 4000 1959 4000 
Q 1678 4000 1319 3909 
L 1319 306 
z
" transform="scale(0.015625)"/>
        <path id="TimesNewRomanPSMT-61" d="M 1822 413 
Q 1381 72 1269 19 
Q 1100 -59 909 -59 
Q 613 -59 420 144 
Q 228 347 228 678 
Q 228 888 322 1041 
Q 450 1253 767 1440 
Q 1084 1628 1822 1897 
L 1822 2009 
Q 1822 2438 1686 2597 
Q 1550 2756 1291 2756 
Q 1094 2756 978 2650 
Q 859 2544 859 2406 
L 866 2225 
Q 866 2081 792 2003 
Q 719 1925 600 1925 
Q 484 1925 411 2006 
Q 338 2088 338 2228 
Q 338 2497 613 2722 
Q 888 2947 1384 2947 
Q 1766 2947 2009 2819 
Q 2194 2722 2281 2516 
Q 2338 2381 2338 1966 
L 2338 994 
Q 2338 584 2353 492 
Q 2369 400 2405 369 
Q 2441 338 2488 338 
Q 2538 338 2575 359 
Q 2641 400 2828 588 
L 2828 413 
Q 2478 -56 2159 -56 
Q 2006 -56 1915 50 
Q 1825 156 1822 413 
z
M 1822 616 
L 1822 1706 
Q 1350 1519 1213 1441 
Q 966 1303 859 1153 
Q 753 1003 753 825 
Q 753 600 887 451 
Q 1022 303 1197 303 
Q 1434 303 1822 616 
z
" transform="scale(0.015625)"/>
        <path id="TimesNewRomanPSMT-74" d="M 1031 3803 
L 1031 2863 
L 1700 2863 
L 1700 2644 
L 1031 2644 
L 1031 788 
Q 1031 509 1111 412 
Q 1191 316 1316 316 
Q 1419 316 1516 380 
Q 1613 444 1666 569 
L 1788 569 
Q 1678 263 1478 108 
Q 1278 -47 1066 -47 
Q 922 -47 784 33 
Q 647 113 581 261 
Q 516 409 516 719 
L 516 2644 
L 63 2644 
L 63 2747 
Q 234 2816 414 2980 
Q 594 3144 734 3369 
Q 806 3488 934 3803 
L 1031 3803 
z
" transform="scale(0.015625)"/>
       </defs>
       <use xlink:href="#TimesNewRomanPSMT-44"/>
       <use xlink:href="#TimesNewRomanPSMT-61" transform="translate(72.216797 0)"/>
       <use xlink:href="#TimesNewRomanPSMT-74" transform="translate(116.601562 0)"/>
       <use xlink:href="#TimesNewRomanPSMT-61" transform="translate(144.384766 0)"/>
      </g>
      <!-- Minimization -->
      <g transform="translate(577.536094 349.783438) scale(0.11 -0.11)">
       <defs>
        <path id="TimesNewRomanPSMT-4d" d="M 2619 0 
L 981 3566 
L 981 734 
Q 981 344 1066 247 
Q 1181 116 1431 116 
L 1581 116 
L 1581 0 
L 106 0 
L 106 116 
L 256 116 
Q 525 116 638 278 
Q 706 378 706 734 
L 706 3503 
Q 706 3784 644 3909 
Q 600 4000 483 4061 
Q 366 4122 106 4122 
L 106 4238 
L 1306 4238 
L 2844 922 
L 4356 4238 
L 5556 4238 
L 5556 4122 
L 5409 4122 
Q 5138 4122 5025 3959 
Q 4956 3859 4956 3503 
L 4956 734 
Q 4956 344 5044 247 
Q 5159 116 5409 116 
L 5556 116 
L 5556 0 
L 3756 0 
L 3756 116 
L 3906 116 
Q 4178 116 4288 278 
Q 4356 378 4356 734 
L 4356 3566 
L 2722 0 
L 2619 0 
z
" transform="scale(0.015625)"/>
        <path id="TimesNewRomanPSMT-69" d="M 928 4444 
Q 1059 4444 1151 4351 
Q 1244 4259 1244 4128 
Q 1244 3997 1151 3903 
Q 1059 3809 928 3809 
Q 797 3809 703 3903 
Q 609 3997 609 4128 
Q 609 4259 701 4351 
Q 794 4444 928 4444 
z
M 1188 2947 
L 1188 647 
Q 1188 378 1227 289 
Q 1266 200 1342 156 
Q 1419 113 1622 113 
L 1622 0 
L 231 0 
L 231 113 
Q 441 113 512 153 
Q 584 194 626 287 
Q 669 381 669 647 
L 669 1750 
Q 669 2216 641 2353 
Q 619 2453 572 2492 
Q 525 2531 444 2531 
Q 356 2531 231 2484 
L 188 2597 
L 1050 2947 
L 1188 2947 
z
" transform="scale(0.015625)"/>
        <path id="TimesNewRomanPSMT-6e" d="M 1034 2341 
Q 1538 2947 1994 2947 
Q 2228 2947 2397 2830 
Q 2566 2713 2666 2444 
Q 2734 2256 2734 1869 
L 2734 647 
Q 2734 375 2778 278 
Q 2813 200 2889 156 
Q 2966 113 3172 113 
L 3172 0 
L 1756 0 
L 1756 113 
L 1816 113 
Q 2016 113 2095 173 
Q 2175 234 2206 353 
Q 2219 400 2219 647 
L 2219 1819 
Q 2219 2209 2117 2386 
Q 2016 2563 1775 2563 
Q 1403 2563 1034 2156 
L 1034 647 
Q 1034 356 1069 288 
Q 1113 197 1189 155 
Q 1266 113 1500 113 
L 1500 0 
L 84 0 
L 84 113 
L 147 113 
Q 366 113 442 223 
Q 519 334 519 647 
L 519 1709 
Q 519 2225 495 2337 
Q 472 2450 423 2490 
Q 375 2531 294 2531 
Q 206 2531 84 2484 
L 38 2597 
L 900 2947 
L 1034 2947 
L 1034 2341 
z
" transform="scale(0.015625)"/>
        <path id="TimesNewRomanPSMT-6d" d="M 1050 2338 
Q 1363 2650 1419 2697 
Q 1559 2816 1721 2881 
Q 1884 2947 2044 2947 
Q 2313 2947 2506 2790 
Q 2700 2634 2766 2338 
Q 3088 2713 3309 2830 
Q 3531 2947 3766 2947 
Q 3994 2947 4170 2830 
Q 4347 2713 4450 2447 
Q 4519 2266 4519 1878 
L 4519 647 
Q 4519 378 4559 278 
Q 4591 209 4675 161 
Q 4759 113 4950 113 
L 4950 0 
L 3538 0 
L 3538 113 
L 3597 113 
Q 3781 113 3884 184 
Q 3956 234 3988 344 
Q 4000 397 4000 647 
L 4000 1878 
Q 4000 2228 3916 2372 
Q 3794 2572 3525 2572 
Q 3359 2572 3192 2489 
Q 3025 2406 2788 2181 
L 2781 2147 
L 2788 2013 
L 2788 647 
Q 2788 353 2820 281 
Q 2853 209 2943 161 
Q 3034 113 3253 113 
L 3253 0 
L 1806 0 
L 1806 113 
Q 2044 113 2133 169 
Q 2222 225 2256 338 
Q 2272 391 2272 647 
L 2272 1878 
Q 2272 2228 2169 2381 
Q 2031 2581 1784 2581 
Q 1616 2581 1450 2491 
Q 1191 2353 1050 2181 
L 1050 647 
Q 1050 366 1089 281 
Q 1128 197 1204 155 
Q 1281 113 1516 113 
L 1516 0 
L 100 0 
L 100 113 
Q 297 113 375 155 
Q 453 197 493 289 
Q 534 381 534 647 
L 534 1741 
Q 534 2213 506 2350 
Q 484 2453 437 2492 
Q 391 2531 309 2531 
Q 222 2531 100 2484 
L 53 2597 
L 916 2947 
L 1050 2947 
L 1050 2338 
z
" transform="scale(0.015625)"/>
        <path id="TimesNewRomanPSMT-7a" d="M 2688 878 
L 2653 0 
L 128 0 
L 128 113 
L 2028 2644 
L 1091 2644 
Q 788 2644 694 2605 
Q 600 2566 541 2456 
Q 456 2300 444 2069 
L 319 2069 
L 338 2863 
L 2738 2863 
L 2738 2747 
L 819 209 
L 1863 209 
Q 2191 209 2308 264 
Q 2425 319 2497 456 
Q 2547 556 2581 878 
L 2688 878 
z
" transform="scale(0.015625)"/>
        <path id="TimesNewRomanPSMT-6f" d="M 1600 2947 
Q 2250 2947 2644 2453 
Q 2978 2031 2978 1484 
Q 2978 1100 2793 706 
Q 2609 313 2286 112 
Q 1963 -88 1566 -88 
Q 919 -88 538 428 
Q 216 863 216 1403 
Q 216 1797 411 2186 
Q 606 2575 925 2761 
Q 1244 2947 1600 2947 
z
M 1503 2744 
Q 1338 2744 1170 2645 
Q 1003 2547 900 2300 
Q 797 2053 797 1666 
Q 797 1041 1045 587 
Q 1294 134 1700 134 
Q 2003 134 2200 384 
Q 2397 634 2397 1244 
Q 2397 2006 2069 2444 
Q 1847 2744 1503 2744 
z
" transform="scale(0.015625)"/>
       </defs>
       <use xlink:href="#TimesNewRomanPSMT-4d"/>
       <use xlink:href="#TimesNewRomanPSMT-69" transform="translate(88.916016 0)"/>
       <use xlink:href="#TimesNewRomanPSMT-6e" transform="translate(116.699219 0)"/>
       <use xlink:href="#TimesNewRomanPSMT-69" transform="translate(166.699219 0)"/>
       <use xlink:href="#TimesNewRomanPSMT-6d" transform="translate(194.482422 0)"/>
       <use xlink:href="#TimesNewRomanPSMT-69" transform="translate(272.265625 0)"/>
       <use xlink:href="#TimesNewRomanPSMT-7a" transform="translate(300.048828 0)"/>
       <use xlink:href="#TimesNewRomanPSMT-61" transform="translate(344.433594 0)"/>
       <use xlink:href="#TimesNewRomanPSMT-74" transform="translate(388.818359 0)"/>
       <use xlink:href="#TimesNewRomanPSMT-69" transform="translate(416.601562 0)"/>
       <use xlink:href="#TimesNewRomanPSMT-6f" transform="translate(444.384766 0)"/>
       <use xlink:href="#TimesNewRomanPSMT-6e" transform="translate(494.384766 0)"/>
      </g>
     </g>
    </g>
    <g id="xtick_2">
     <g id="line2d_2">
      <path d="M 316.277578 341.3815 
L 540.537089 178.447428 
" clip-path="url(#p99201439d6)" style="fill: none; stroke-dasharray: 2.96,1.28; stroke-dashoffset: 0; stroke: #b0b0b0; stroke-opacity: 0.5; stroke-width: 0.8"/>
     </g>
     <g id="text_2">
      <!-- Access -->
      <g transform="translate(536.285436 167.101653) scale(0.11 -0.11)">
       <defs>
        <path id="TimesNewRomanPSMT-41" d="M 2928 1419 
L 1288 1419 
L 1000 750 
Q 894 503 894 381 
Q 894 284 986 211 
Q 1078 138 1384 116 
L 1384 0 
L 50 0 
L 50 116 
Q 316 163 394 238 
Q 553 388 747 847 
L 2238 4334 
L 2347 4334 
L 3822 809 
Q 4000 384 4145 257 
Q 4291 131 4550 116 
L 4550 0 
L 2878 0 
L 2878 116 
Q 3131 128 3220 200 
Q 3309 272 3309 375 
Q 3309 513 3184 809 
L 2928 1419 
z
M 2841 1650 
L 2122 3363 
L 1384 1650 
L 2841 1650 
z
" transform="scale(0.015625)"/>
        <path id="TimesNewRomanPSMT-63" d="M 2631 1088 
Q 2516 522 2178 217 
Q 1841 -88 1431 -88 
Q 944 -88 581 321 
Q 219 731 219 1428 
Q 219 2103 620 2525 
Q 1022 2947 1584 2947 
Q 2006 2947 2278 2723 
Q 2550 2500 2550 2259 
Q 2550 2141 2473 2067 
Q 2397 1994 2259 1994 
Q 2075 1994 1981 2113 
Q 1928 2178 1911 2362 
Q 1894 2547 1784 2644 
Q 1675 2738 1481 2738 
Q 1169 2738 978 2506 
Q 725 2200 725 1697 
Q 725 1184 976 792 
Q 1228 400 1656 400 
Q 1963 400 2206 609 
Q 2378 753 2541 1131 
L 2631 1088 
z
" transform="scale(0.015625)"/>
        <path id="TimesNewRomanPSMT-65" d="M 681 1784 
Q 678 1147 991 784 
Q 1303 422 1725 422 
Q 2006 422 2214 576 
Q 2422 731 2563 1106 
L 2659 1044 
Q 2594 616 2278 264 
Q 1963 -88 1488 -88 
Q 972 -88 605 314 
Q 238 716 238 1394 
Q 238 2128 614 2539 
Q 991 2950 1559 2950 
Q 2041 2950 2350 2633 
Q 2659 2316 2659 1784 
L 681 1784 
z
M 681 1966 
L 2006 1966 
Q 1991 2241 1941 2353 
Q 1863 2528 1708 2628 
Q 1553 2728 1384 2728 
Q 1125 2728 920 2526 
Q 716 2325 681 1966 
z
" transform="scale(0.015625)"/>
        <path id="TimesNewRomanPSMT-73" d="M 2050 2947 
L 2050 1972 
L 1947 1972 
Q 1828 2431 1642 2597 
Q 1456 2763 1169 2763 
Q 950 2763 815 2647 
Q 681 2531 681 2391 
Q 681 2216 781 2091 
Q 878 1963 1175 1819 
L 1631 1597 
Q 2266 1288 2266 781 
Q 2266 391 1970 151 
Q 1675 -88 1309 -88 
Q 1047 -88 709 6 
Q 606 38 541 38 
Q 469 38 428 -44 
L 325 -44 
L 325 978 
L 428 978 
Q 516 541 762 319 
Q 1009 97 1316 97 
Q 1531 97 1667 223 
Q 1803 350 1803 528 
Q 1803 744 1651 891 
Q 1500 1038 1047 1263 
Q 594 1488 453 1669 
Q 313 1847 313 2119 
Q 313 2472 555 2709 
Q 797 2947 1181 2947 
Q 1350 2947 1591 2875 
Q 1750 2828 1803 2828 
Q 1853 2828 1881 2850 
Q 1909 2872 1947 2947 
L 2050 2947 
z
" transform="scale(0.015625)"/>
       </defs>
       <use xlink:href="#TimesNewRomanPSMT-41"/>
       <use xlink:href="#TimesNewRomanPSMT-63" transform="translate(72.216797 0)"/>
       <use xlink:href="#TimesNewRomanPSMT-63" transform="translate(116.601562 0)"/>
       <use xlink:href="#TimesNewRomanPSMT-65" transform="translate(160.986328 0)"/>
       <use xlink:href="#TimesNewRomanPSMT-73" transform="translate(205.371094 0)"/>
       <use xlink:href="#TimesNewRomanPSMT-73" transform="translate(244.287109 0)"/>
      </g>
      <!-- Control -->
      <g transform="translate(535.057389 178.620372) scale(0.11 -0.11)">
       <defs>
        <path id="TimesNewRomanPSMT-43" d="M 3853 4334 
L 3950 2894 
L 3853 2894 
Q 3659 3541 3300 3825 
Q 2941 4109 2438 4109 
Q 2016 4109 1675 3895 
Q 1334 3681 1139 3212 
Q 944 2744 944 2047 
Q 944 1472 1128 1050 
Q 1313 628 1683 403 
Q 2053 178 2528 178 
Q 2941 178 3256 354 
Q 3572 531 3950 1056 
L 4047 994 
Q 3728 428 3303 165 
Q 2878 -97 2294 -97 
Q 1241 -97 663 684 
Q 231 1266 231 2053 
Q 231 2688 515 3219 
Q 800 3750 1298 4042 
Q 1797 4334 2388 4334 
Q 2847 4334 3294 4109 
Q 3425 4041 3481 4041 
Q 3566 4041 3628 4100 
Q 3709 4184 3744 4334 
L 3853 4334 
z
" transform="scale(0.015625)"/>
        <path id="TimesNewRomanPSMT-72" d="M 1038 2947 
L 1038 2303 
Q 1397 2947 1775 2947 
Q 1947 2947 2059 2842 
Q 2172 2738 2172 2600 
Q 2172 2478 2090 2393 
Q 2009 2309 1897 2309 
Q 1788 2309 1652 2417 
Q 1516 2525 1450 2525 
Q 1394 2525 1328 2463 
Q 1188 2334 1038 2041 
L 1038 669 
Q 1038 431 1097 309 
Q 1138 225 1241 169 
Q 1344 113 1538 113 
L 1538 0 
L 72 0 
L 72 113 
Q 291 113 397 181 
Q 475 231 506 341 
Q 522 394 522 644 
L 522 1753 
Q 522 2253 501 2348 
Q 481 2444 426 2487 
Q 372 2531 291 2531 
Q 194 2531 72 2484 
L 41 2597 
L 906 2947 
L 1038 2947 
z
" transform="scale(0.015625)"/>
        <path id="TimesNewRomanPSMT-6c" d="M 1184 4444 
L 1184 647 
Q 1184 378 1223 290 
Q 1263 203 1344 158 
Q 1425 113 1647 113 
L 1647 0 
L 244 0 
L 244 113 
Q 441 113 512 153 
Q 584 194 625 287 
Q 666 381 666 647 
L 666 3247 
Q 666 3731 644 3842 
Q 622 3953 573 3993 
Q 525 4034 450 4034 
Q 369 4034 244 3984 
L 191 4094 
L 1044 4444 
L 1184 4444 
z
" transform="scale(0.015625)"/>
       </defs>
       <use xlink:href="#TimesNewRomanPSMT-43"/>
       <use xlink:href="#TimesNewRomanPSMT-6f" transform="translate(66.699219 0)"/>
       <use xlink:href="#TimesNewRomanPSMT-6e" transform="translate(116.699219 0)"/>
       <use xlink:href="#TimesNewRomanPSMT-74" transform="translate(166.699219 0)"/>
       <use xlink:href="#TimesNewRomanPSMT-72" transform="translate(194.482422 0)"/>
       <use xlink:href="#TimesNewRomanPSMT-6f" transform="translate(227.783203 0)"/>
       <use xlink:href="#TimesNewRomanPSMT-6c" transform="translate(277.783203 0)"/>
      </g>
     </g>
    </g>
    <g id="xtick_3">
     <g id="line2d_3">
      <path d="M 316.277578 341.3815 
L 401.937089 77.748634 
" clip-path="url(#p99201439d6)" style="fill: none; stroke-dasharray: 2.96,1.28; stroke-dashoffset: 0; stroke: #b0b0b0; stroke-opacity: 0.5; stroke-width: 0.8"/>
     </g>
     <g id="text_3">
      <!-- Audit -->
      <g transform="translate(393.735358 61.306749) scale(0.11 -0.11)">
       <defs>
        <path id="TimesNewRomanPSMT-75" d="M 2709 2863 
L 2709 1128 
Q 2709 631 2732 520 
Q 2756 409 2807 365 
Q 2859 322 2928 322 
Q 3025 322 3147 375 
L 3191 266 
L 2334 -88 
L 2194 -88 
L 2194 519 
Q 1825 119 1631 15 
Q 1438 -88 1222 -88 
Q 981 -88 804 51 
Q 628 191 559 409 
Q 491 628 491 1028 
L 491 2306 
Q 491 2509 447 2587 
Q 403 2666 317 2708 
Q 231 2750 6 2747 
L 6 2863 
L 1009 2863 
L 1009 947 
Q 1009 547 1148 422 
Q 1288 297 1484 297 
Q 1619 297 1789 381 
Q 1959 466 2194 703 
L 2194 2325 
Q 2194 2569 2105 2655 
Q 2016 2741 1734 2747 
L 1734 2863 
L 2709 2863 
z
" transform="scale(0.015625)"/>
        <path id="TimesNewRomanPSMT-64" d="M 2222 322 
Q 2013 103 1813 7 
Q 1613 -88 1381 -88 
Q 913 -88 563 304 
Q 213 697 213 1313 
Q 213 1928 600 2439 
Q 988 2950 1597 2950 
Q 1975 2950 2222 2709 
L 2222 3238 
Q 2222 3728 2198 3840 
Q 2175 3953 2125 3993 
Q 2075 4034 2000 4034 
Q 1919 4034 1784 3984 
L 1744 4094 
L 2597 4444 
L 2738 4444 
L 2738 1134 
Q 2738 631 2761 520 
Q 2784 409 2836 365 
Q 2888 322 2956 322 
Q 3041 322 3181 375 
L 3216 266 
L 2366 -88 
L 2222 -88 
L 2222 322 
z
M 2222 541 
L 2222 2016 
Q 2203 2228 2109 2403 
Q 2016 2578 1861 2667 
Q 1706 2756 1559 2756 
Q 1284 2756 1069 2509 
Q 784 2184 784 1559 
Q 784 928 1059 592 
Q 1334 256 1672 256 
Q 1956 256 2222 541 
z
" transform="scale(0.015625)"/>
       </defs>
       <use xlink:href="#TimesNewRomanPSMT-41"/>
       <use xlink:href="#TimesNewRomanPSMT-75" transform="translate(72.216797 0)"/>
       <use xlink:href="#TimesNewRomanPSMT-64" transform="translate(122.216797 0)"/>
       <use xlink:href="#TimesNewRomanPSMT-69" transform="translate(172.216797 0)"/>
       <use xlink:href="#TimesNewRomanPSMT-74" transform="translate(200 0)"/>
      </g>
      <!-- Logging -->
      <g transform="translate(387.626061 72.825467) scale(0.11 -0.11)">
       <defs>
        <path id="TimesNewRomanPSMT-4c" d="M 3669 1172 
L 3772 1150 
L 3409 0 
L 128 0 
L 128 116 
L 288 116 
Q 556 116 672 291 
Q 738 391 738 753 
L 738 3488 
Q 738 3884 650 3984 
Q 528 4122 288 4122 
L 128 4122 
L 128 4238 
L 2047 4238 
L 2047 4122 
Q 1709 4125 1573 4059 
Q 1438 3994 1388 3894 
Q 1338 3794 1338 3416 
L 1338 753 
Q 1338 494 1388 397 
Q 1425 331 1503 300 
Q 1581 269 1991 269 
L 2300 269 
Q 2788 269 2984 341 
Q 3181 413 3343 595 
Q 3506 778 3669 1172 
z
" transform="scale(0.015625)"/>
        <path id="TimesNewRomanPSMT-67" d="M 966 1044 
Q 703 1172 562 1401 
Q 422 1631 422 1909 
Q 422 2334 742 2640 
Q 1063 2947 1563 2947 
Q 1972 2947 2272 2747 
L 2878 2747 
Q 3013 2747 3034 2739 
Q 3056 2731 3066 2713 
Q 3084 2684 3084 2613 
Q 3084 2531 3069 2500 
Q 3059 2484 3036 2475 
Q 3013 2466 2878 2466 
L 2506 2466 
Q 2681 2241 2681 1891 
Q 2681 1491 2375 1206 
Q 2069 922 1553 922 
Q 1341 922 1119 984 
Q 981 866 932 777 
Q 884 688 884 625 
Q 884 572 936 522 
Q 988 472 1138 450 
Q 1225 438 1575 428 
Q 2219 413 2409 384 
Q 2700 344 2873 169 
Q 3047 -6 3047 -263 
Q 3047 -616 2716 -925 
Q 2228 -1381 1444 -1381 
Q 841 -1381 425 -1109 
Q 191 -953 191 -784 
Q 191 -709 225 -634 
Q 278 -519 444 -313 
Q 466 -284 763 25 
Q 600 122 533 198 
Q 466 275 466 372 
Q 466 481 555 628 
Q 644 775 966 1044 
z
M 1509 2797 
Q 1278 2797 1122 2612 
Q 966 2428 966 2047 
Q 966 1553 1178 1281 
Q 1341 1075 1591 1075 
Q 1828 1075 1981 1253 
Q 2134 1431 2134 1813 
Q 2134 2309 1919 2591 
Q 1759 2797 1509 2797 
z
M 934 0 
Q 788 -159 713 -296 
Q 638 -434 638 -550 
Q 638 -700 819 -813 
Q 1131 -1006 1722 -1006 
Q 2284 -1006 2551 -807 
Q 2819 -609 2819 -384 
Q 2819 -222 2659 -153 
Q 2497 -84 2016 -72 
Q 1313 -53 934 0 
z
" transform="scale(0.015625)"/>
       </defs>
       <use xlink:href="#TimesNewRomanPSMT-4c"/>
       <use xlink:href="#TimesNewRomanPSMT-6f" transform="translate(61.083984 0)"/>
       <use xlink:href="#TimesNewRomanPSMT-67" transform="translate(111.083984 0)"/>
       <use xlink:href="#TimesNewRomanPSMT-67" transform="translate(161.083984 0)"/>
       <use xlink:href="#TimesNewRomanPSMT-69" transform="translate(211.083984 0)"/>
       <use xlink:href="#TimesNewRomanPSMT-6e" transform="translate(238.867188 0)"/>
       <use xlink:href="#TimesNewRomanPSMT-67" transform="translate(288.867188 0)"/>
      </g>
     </g>
    </g>
    <g id="xtick_4">
     <g id="line2d_4">
      <path d="M 316.277578 341.3815 
L 230.618067 77.748634 
" clip-path="url(#p99201439d6)" style="fill: none; stroke-dasharray: 2.96,1.28; stroke-dashoffset: 0; stroke: #b0b0b0; stroke-opacity: 0.5; stroke-width: 0.8"/>
     </g>
     <g id="text_4">
      <!-- Encryption -->
      <g transform="translate(201.853782 61.306749) scale(0.11 -0.11)">
       <defs>
        <path id="TimesNewRomanPSMT-45" d="M 1338 4006 
L 1338 2331 
L 2269 2331 
Q 2631 2331 2753 2441 
Q 2916 2584 2934 2947 
L 3050 2947 
L 3050 1472 
L 2934 1472 
Q 2891 1781 2847 1869 
Q 2791 1978 2662 2040 
Q 2534 2103 2269 2103 
L 1338 2103 
L 1338 706 
Q 1338 425 1363 364 
Q 1388 303 1450 267 
Q 1513 231 1688 231 
L 2406 231 
Q 2766 231 2928 281 
Q 3091 331 3241 478 
Q 3434 672 3638 1063 
L 3763 1063 
L 3397 0 
L 131 0 
L 131 116 
L 281 116 
Q 431 116 566 188 
Q 666 238 702 338 
Q 738 438 738 747 
L 738 3500 
Q 738 3903 656 3997 
Q 544 4122 281 4122 
L 131 4122 
L 131 4238 
L 3397 4238 
L 3444 3309 
L 3322 3309 
Q 3256 3644 3176 3769 
Q 3097 3894 2941 3959 
Q 2816 4006 2500 4006 
L 1338 4006 
z
" transform="scale(0.015625)"/>
        <path id="TimesNewRomanPSMT-79" d="M 38 2863 
L 1372 2863 
L 1372 2747 
L 1306 2747 
Q 1166 2747 1095 2686 
Q 1025 2625 1025 2534 
Q 1025 2413 1128 2197 
L 1825 753 
L 2466 2334 
Q 2519 2463 2519 2588 
Q 2519 2644 2497 2672 
Q 2472 2706 2419 2726 
Q 2366 2747 2231 2747 
L 2231 2863 
L 3163 2863 
L 3163 2747 
Q 3047 2734 2984 2696 
Q 2922 2659 2847 2556 
Q 2819 2513 2741 2316 
L 1575 -541 
Q 1406 -956 1132 -1168 
Q 859 -1381 606 -1381 
Q 422 -1381 303 -1275 
Q 184 -1169 184 -1031 
Q 184 -900 270 -820 
Q 356 -741 506 -741 
Q 609 -741 788 -809 
Q 913 -856 944 -856 
Q 1038 -856 1148 -759 
Q 1259 -663 1372 -384 
L 1575 113 
L 547 2272 
Q 500 2369 397 2513 
Q 319 2622 269 2659 
Q 197 2709 38 2747 
L 38 2863 
z
" transform="scale(0.015625)"/>
        <path id="TimesNewRomanPSMT-70" d="M -6 2578 
L 875 2934 
L 994 2934 
L 994 2266 
Q 1216 2644 1439 2795 
Q 1663 2947 1909 2947 
Q 2341 2947 2628 2609 
Q 2981 2197 2981 1534 
Q 2981 794 2556 309 
Q 2206 -88 1675 -88 
Q 1444 -88 1275 -22 
Q 1150 25 994 166 
L 994 -706 
Q 994 -1000 1030 -1079 
Q 1066 -1159 1155 -1206 
Q 1244 -1253 1478 -1253 
L 1478 -1369 
L -22 -1369 
L -22 -1253 
L 56 -1253 
Q 228 -1256 350 -1188 
Q 409 -1153 442 -1076 
Q 475 -1000 475 -688 
L 475 2019 
Q 475 2297 450 2372 
Q 425 2447 370 2484 
Q 316 2522 222 2522 
Q 147 2522 31 2478 
L -6 2578 
z
M 994 2081 
L 994 1013 
Q 994 666 1022 556 
Q 1066 375 1236 237 
Q 1406 100 1666 100 
Q 1978 100 2172 344 
Q 2425 663 2425 1241 
Q 2425 1897 2138 2250 
Q 1938 2494 1663 2494 
Q 1513 2494 1366 2419 
Q 1253 2363 994 2081 
z
" transform="scale(0.015625)"/>
       </defs>
       <use xlink:href="#TimesNewRomanPSMT-45"/>
       <use xlink:href="#TimesNewRomanPSMT-6e" transform="translate(61.083984 0)"/>
       <use xlink:href="#TimesNewRomanPSMT-63" transform="translate(111.083984 0)"/>
       <use xlink:href="#TimesNewRomanPSMT-72" transform="translate(155.46875 0)"/>
       <use xlink:href="#TimesNewRomanPSMT-79" transform="translate(188.769531 0)"/>
       <use xlink:href="#TimesNewRomanPSMT-70" transform="translate(238.769531 0)"/>
       <use xlink:href="#TimesNewRomanPSMT-74" transform="translate(288.769531 0)"/>
       <use xlink:href="#TimesNewRomanPSMT-69" transform="translate(316.552734 0)"/>
       <use xlink:href="#TimesNewRomanPSMT-6f" transform="translate(344.335938 0)"/>
       <use xlink:href="#TimesNewRomanPSMT-6e" transform="translate(394.335938 0)"/>
      </g>
      <!-- at Rest -->
      <g transform="translate(211.168548 72.846092) scale(0.11 -0.11)">
       <defs>
        <path id="TimesNewRomanPSMT-20" transform="scale(0.015625)"/>
        <path id="TimesNewRomanPSMT-52" d="M 4325 0 
L 3194 0 
L 1759 1981 
Q 1600 1975 1500 1975 
Q 1459 1975 1412 1976 
Q 1366 1978 1316 1981 
L 1316 750 
Q 1316 350 1403 253 
Q 1522 116 1759 116 
L 1925 116 
L 1925 0 
L 109 0 
L 109 116 
L 269 116 
Q 538 116 653 291 
Q 719 388 719 750 
L 719 3488 
Q 719 3888 631 3984 
Q 509 4122 269 4122 
L 109 4122 
L 109 4238 
L 1653 4238 
Q 2328 4238 2648 4139 
Q 2969 4041 3192 3777 
Q 3416 3513 3416 3147 
Q 3416 2756 3161 2468 
Q 2906 2181 2372 2063 
L 3247 847 
Q 3547 428 3762 290 
Q 3978 153 4325 116 
L 4325 0 
z
M 1316 2178 
Q 1375 2178 1419 2176 
Q 1463 2175 1491 2175 
Q 2097 2175 2405 2437 
Q 2713 2700 2713 3106 
Q 2713 3503 2464 3751 
Q 2216 4000 1806 4000 
Q 1625 4000 1316 3941 
L 1316 2178 
z
" transform="scale(0.015625)"/>
       </defs>
       <use xlink:href="#TimesNewRomanPSMT-61"/>
       <use xlink:href="#TimesNewRomanPSMT-74" transform="translate(44.384766 0)"/>
       <use xlink:href="#TimesNewRomanPSMT-20" transform="translate(72.167969 0)"/>
       <use xlink:href="#TimesNewRomanPSMT-52" transform="translate(97.167969 0)"/>
       <use xlink:href="#TimesNewRomanPSMT-65" transform="translate(163.867188 0)"/>
       <use xlink:href="#TimesNewRomanPSMT-73" transform="translate(208.251953 0)"/>
       <use xlink:href="#TimesNewRomanPSMT-74" transform="translate(247.167969 0)"/>
      </g>
     </g>
    </g>
    <g id="xtick_5">
     <g id="line2d_5">
      <path d="M 316.277578 341.3815 
L 92.018067 178.447428 
" clip-path="url(#p99201439d6)" style="fill: none; stroke-dasharray: 2.96,1.28; stroke-dashoffset: 0; stroke: #b0b0b0; stroke-opacity: 0.5; stroke-width: 0.8"/>
     </g>
     <g id="text_5">
      <!-- Encryption -->
      <g transform="translate(56.253782 167.091341) scale(0.11 -0.11)">
       <use xlink:href="#TimesNewRomanPSMT-45"/>
       <use xlink:href="#TimesNewRomanPSMT-6e" transform="translate(61.083984 0)"/>
       <use xlink:href="#TimesNewRomanPSMT-63" transform="translate(111.083984 0)"/>
       <use xlink:href="#TimesNewRomanPSMT-72" transform="translate(155.46875 0)"/>
       <use xlink:href="#TimesNewRomanPSMT-79" transform="translate(188.769531 0)"/>
       <use xlink:href="#TimesNewRomanPSMT-70" transform="translate(238.769531 0)"/>
       <use xlink:href="#TimesNewRomanPSMT-74" transform="translate(288.769531 0)"/>
       <use xlink:href="#TimesNewRomanPSMT-69" transform="translate(316.552734 0)"/>
       <use xlink:href="#TimesNewRomanPSMT-6f" transform="translate(344.335938 0)"/>
       <use xlink:href="#TimesNewRomanPSMT-6e" transform="translate(394.335938 0)"/>
      </g>
      <!-- in Transit -->
      <g transform="translate(59.748861 178.630685) scale(0.11 -0.11)">
       <defs>
        <path id="TimesNewRomanPSMT-54" d="M 3703 4238 
L 3750 3244 
L 3631 3244 
Q 3597 3506 3538 3619 
Q 3441 3800 3280 3886 
Q 3119 3972 2856 3972 
L 2259 3972 
L 2259 734 
Q 2259 344 2344 247 
Q 2463 116 2709 116 
L 2856 116 
L 2856 0 
L 1059 0 
L 1059 116 
L 1209 116 
Q 1478 116 1591 278 
Q 1659 378 1659 734 
L 1659 3972 
L 1150 3972 
Q 853 3972 728 3928 
Q 566 3869 450 3700 
Q 334 3531 313 3244 
L 194 3244 
L 244 4238 
L 3703 4238 
z
" transform="scale(0.015625)"/>
       </defs>
       <use xlink:href="#TimesNewRomanPSMT-69"/>
       <use xlink:href="#TimesNewRomanPSMT-6e" transform="translate(27.783203 0)"/>
       <use xlink:href="#TimesNewRomanPSMT-20" transform="translate(77.783203 0)"/>
       <use xlink:href="#TimesNewRomanPSMT-54" transform="translate(101.033203 0)"/>
       <use xlink:href="#TimesNewRomanPSMT-72" transform="translate(158.617188 0)"/>
       <use xlink:href="#TimesNewRomanPSMT-61" transform="translate(191.917969 0)"/>
       <use xlink:href="#TimesNewRomanPSMT-6e" transform="translate(236.302734 0)"/>
       <use xlink:href="#TimesNewRomanPSMT-73" transform="translate(286.302734 0)"/>
       <use xlink:href="#TimesNewRomanPSMT-69" transform="translate(325.21875 0)"/>
       <use xlink:href="#TimesNewRomanPSMT-74" transform="translate(353.001953 0)"/>
      </g>
     </g>
    </g>
    <g id="xtick_6">
     <g id="line2d_6">
      <path d="M 316.277578 341.3815 
L 39.077578 341.3815 
" clip-path="url(#p99201439d6)" style="fill: none; stroke-dasharray: 2.96,1.28; stroke-dashoffset: 0; stroke: #b0b0b0; stroke-opacity: 0.5; stroke-width: 0.8"/>
     </g>
     <g id="text_6">
      <!-- Right to -->
      <g transform="translate(7.2 338.254406) scale(0.11 -0.11)">
       <defs>
        <path id="TimesNewRomanPSMT-68" d="M 1041 4444 
L 1041 2350 
Q 1388 2731 1591 2839 
Q 1794 2947 1997 2947 
Q 2241 2947 2416 2812 
Q 2591 2678 2675 2391 
Q 2734 2191 2734 1659 
L 2734 647 
Q 2734 375 2778 275 
Q 2809 200 2884 156 
Q 2959 113 3159 113 
L 3159 0 
L 1753 0 
L 1753 113 
L 1819 113 
Q 2019 113 2097 173 
Q 2175 234 2206 353 
Q 2216 403 2216 647 
L 2216 1659 
Q 2216 2128 2167 2275 
Q 2119 2422 2012 2495 
Q 1906 2569 1756 2569 
Q 1603 2569 1437 2487 
Q 1272 2406 1041 2159 
L 1041 647 
Q 1041 353 1073 281 
Q 1106 209 1195 161 
Q 1284 113 1503 113 
L 1503 0 
L 84 0 
L 84 113 
Q 275 113 384 172 
Q 447 203 484 290 
Q 522 378 522 647 
L 522 3238 
Q 522 3728 498 3840 
Q 475 3953 426 3993 
Q 378 4034 297 4034 
Q 231 4034 84 3984 
L 41 4094 
L 897 4444 
L 1041 4444 
z
" transform="scale(0.015625)"/>
       </defs>
       <use xlink:href="#TimesNewRomanPSMT-52"/>
       <use xlink:href="#TimesNewRomanPSMT-69" transform="translate(66.699219 0)"/>
       <use xlink:href="#TimesNewRomanPSMT-67" transform="translate(94.482422 0)"/>
       <use xlink:href="#TimesNewRomanPSMT-68" transform="translate(144.482422 0)"/>
       <use xlink:href="#TimesNewRomanPSMT-74" transform="translate(194.482422 0)"/>
       <use xlink:href="#TimesNewRomanPSMT-20" transform="translate(222.265625 0)"/>
       <use xlink:href="#TimesNewRomanPSMT-74" transform="translate(247.265625 0)"/>
       <use xlink:href="#TimesNewRomanPSMT-6f" transform="translate(275.048828 0)"/>
      </g>
      <!-- Erasure -->
      <g transform="translate(8.281953 349.79375) scale(0.11 -0.11)">
       <use xlink:href="#TimesNewRomanPSMT-45"/>
       <use xlink:href="#TimesNewRomanPSMT-72" transform="translate(61.083984 0)"/>
       <use xlink:href="#TimesNewRomanPSMT-61" transform="translate(94.384766 0)"/>
       <use xlink:href="#TimesNewRomanPSMT-73" transform="translate(138.769531 0)"/>
       <use xlink:href="#TimesNewRomanPSMT-75" transform="translate(177.685547 0)"/>
       <use xlink:href="#TimesNewRomanPSMT-72" transform="translate(227.685547 0)"/>
       <use xlink:href="#TimesNewRomanPSMT-65" transform="translate(260.986328 0)"/>
      </g>
     </g>
    </g>
    <g id="xtick_7">
     <g id="line2d_7">
      <path d="M 316.277578 341.3815 
L 92.018067 504.315572 
" clip-path="url(#p99201439d6)" style="fill: none; stroke-dasharray: 2.96,1.28; stroke-dashoffset: 0; stroke: #b0b0b0; stroke-opacity: 0.5; stroke-width: 0.8"/>
     </g>
     <g id="text_7">
      <!-- Data -->
      <g transform="translate(70.308861 509.417472) scale(0.11 -0.11)">
       <use xlink:href="#TimesNewRomanPSMT-44"/>
       <use xlink:href="#TimesNewRomanPSMT-61" transform="translate(72.216797 0)"/>
       <use xlink:href="#TimesNewRomanPSMT-74" transform="translate(116.601562 0)"/>
       <use xlink:href="#TimesNewRomanPSMT-61" transform="translate(144.384766 0)"/>
      </g>
      <!-- Portability -->
      <g transform="translate(57.470657 520.93619) scale(0.11 -0.11)">
       <defs>
        <path id="TimesNewRomanPSMT-50" d="M 1313 1984 
L 1313 750 
Q 1313 350 1400 253 
Q 1519 116 1759 116 
L 1922 116 
L 1922 0 
L 106 0 
L 106 116 
L 266 116 
Q 534 116 650 291 
Q 713 388 713 750 
L 713 3488 
Q 713 3888 628 3984 
Q 506 4122 266 4122 
L 106 4122 
L 106 4238 
L 1659 4238 
Q 2228 4238 2556 4120 
Q 2884 4003 3109 3725 
Q 3334 3447 3334 3066 
Q 3334 2547 2992 2222 
Q 2650 1897 2025 1897 
Q 1872 1897 1694 1919 
Q 1516 1941 1313 1984 
z
M 1313 2163 
Q 1478 2131 1606 2115 
Q 1734 2100 1825 2100 
Q 2150 2100 2386 2351 
Q 2622 2603 2622 3003 
Q 2622 3278 2509 3514 
Q 2397 3750 2190 3867 
Q 1984 3984 1722 3984 
Q 1563 3984 1313 3925 
L 1313 2163 
z
" transform="scale(0.015625)"/>
        <path id="TimesNewRomanPSMT-62" d="M 984 2369 
Q 1400 2947 1881 2947 
Q 2322 2947 2650 2570 
Q 2978 2194 2978 1541 
Q 2978 778 2472 313 
Q 2038 -88 1503 -88 
Q 1253 -88 995 3 
Q 738 94 469 275 
L 469 3241 
Q 469 3728 445 3840 
Q 422 3953 372 3993 
Q 322 4034 247 4034 
Q 159 4034 28 3984 
L -16 4094 
L 844 4444 
L 984 4444 
L 984 2369 
z
M 984 2169 
L 984 456 
Q 1144 300 1314 220 
Q 1484 141 1663 141 
Q 1947 141 2192 453 
Q 2438 766 2438 1363 
Q 2438 1913 2192 2208 
Q 1947 2503 1634 2503 
Q 1469 2503 1303 2419 
Q 1178 2356 984 2169 
z
" transform="scale(0.015625)"/>
       </defs>
       <use xlink:href="#TimesNewRomanPSMT-50"/>
       <use xlink:href="#TimesNewRomanPSMT-6f" transform="translate(55.615234 0)"/>
       <use xlink:href="#TimesNewRomanPSMT-72" transform="translate(105.615234 0)"/>
       <use xlink:href="#TimesNewRomanPSMT-74" transform="translate(138.916016 0)"/>
       <use xlink:href="#TimesNewRomanPSMT-61" transform="translate(166.699219 0)"/>
       <use xlink:href="#TimesNewRomanPSMT-62" transform="translate(211.083984 0)"/>
       <use xlink:href="#TimesNewRomanPSMT-69" transform="translate(261.083984 0)"/>
       <use xlink:href="#TimesNewRomanPSMT-6c" transform="translate(288.867188 0)"/>
       <use xlink:href="#TimesNewRomanPSMT-69" transform="translate(316.650391 0)"/>
       <use xlink:href="#TimesNewRomanPSMT-74" transform="translate(344.433594 0)"/>
       <use xlink:href="#TimesNewRomanPSMT-79" transform="translate(372.216797 0)"/>
      </g>
     </g>
    </g>
    <g id="xtick_8">
     <g id="line2d_8">
      <path d="M 316.277578 341.3815 
L 230.618067 605.014366 
" clip-path="url(#p99201439d6)" style="fill: none; stroke-dasharray: 2.96,1.28; stroke-dashoffset: 0; stroke: #b0b0b0; stroke-opacity: 0.5; stroke-width: 0.8"/>
     </g>
     <g id="text_8">
      <!-- Purpose -->
      <g transform="translate(208.569798 615.212376) scale(0.11 -0.11)">
       <use xlink:href="#TimesNewRomanPSMT-50"/>
       <use xlink:href="#TimesNewRomanPSMT-75" transform="translate(55.615234 0)"/>
       <use xlink:href="#TimesNewRomanPSMT-72" transform="translate(105.615234 0)"/>
       <use xlink:href="#TimesNewRomanPSMT-70" transform="translate(138.916016 0)"/>
       <use xlink:href="#TimesNewRomanPSMT-6f" transform="translate(188.916016 0)"/>
       <use xlink:href="#TimesNewRomanPSMT-73" transform="translate(238.916016 0)"/>
       <use xlink:href="#TimesNewRomanPSMT-65" transform="translate(277.832031 0)"/>
      </g>
      <!-- Limitation -->
      <g transform="translate(203.073236 626.731095) scale(0.11 -0.11)">
       <use xlink:href="#TimesNewRomanPSMT-4c"/>
       <use xlink:href="#TimesNewRomanPSMT-69" transform="translate(61.083984 0)"/>
       <use xlink:href="#TimesNewRomanPSMT-6d" transform="translate(88.867188 0)"/>
       <use xlink:href="#TimesNewRomanPSMT-69" transform="translate(166.650391 0)"/>
       <use xlink:href="#TimesNewRomanPSMT-74" transform="translate(194.433594 0)"/>
       <use xlink:href="#TimesNewRomanPSMT-61" transform="translate(222.216797 0)"/>
       <use xlink:href="#TimesNewRomanPSMT-74" transform="translate(266.601562 0)"/>
       <use xlink:href="#TimesNewRomanPSMT-69" transform="translate(294.384766 0)"/>
       <use xlink:href="#TimesNewRomanPSMT-6f" transform="translate(322.167969 0)"/>
       <use xlink:href="#TimesNewRomanPSMT-6e" transform="translate(372.167969 0)"/>
      </g>
     </g>
    </g>
    <g id="xtick_9">
     <g id="line2d_9">
      <path d="M 316.277578 341.3815 
L 401.937089 605.014366 
" clip-path="url(#p99201439d6)" style="fill: none; stroke-dasharray: 2.96,1.28; stroke-dashoffset: 0; stroke: #b0b0b0; stroke-opacity: 0.5; stroke-width: 0.8"/>
     </g>
     <g id="text_9">
      <!-- Integrity &amp; -->
      <g transform="translate(381.672311 615.191751) scale(0.11 -0.11)">
       <defs>
        <path id="TimesNewRomanPSMT-49" d="M 1975 116 
L 1975 0 
L 159 0 
L 159 116 
L 309 116 
Q 572 116 691 269 
Q 766 369 766 750 
L 766 3488 
Q 766 3809 725 3913 
Q 694 3991 597 4047 
Q 459 4122 309 4122 
L 159 4122 
L 159 4238 
L 1975 4238 
L 1975 4122 
L 1822 4122 
Q 1563 4122 1444 3969 
Q 1366 3869 1366 3488 
L 1366 750 
Q 1366 428 1406 325 
Q 1438 247 1538 191 
Q 1672 116 1822 116 
L 1975 116 
z
" transform="scale(0.015625)"/>
        <path id="TimesNewRomanPSMT-26" d="M 3266 2728 
L 4578 2728 
L 4578 2613 
Q 4306 2591 4176 2492 
Q 4047 2394 3772 1897 
Q 3497 1400 3153 969 
Q 3431 644 3650 514 
Q 3869 384 4091 384 
Q 4306 384 4456 501 
Q 4606 619 4669 847 
L 4784 763 
Q 4669 322 4412 112 
Q 4156 -97 3816 -97 
Q 3559 -97 3295 42 
Q 3031 181 2719 513 
Q 2331 169 2020 36 
Q 1709 -97 1356 -97 
Q 841 -97 537 178 
Q 234 453 234 834 
Q 234 1213 506 1589 
Q 778 1966 1528 2369 
Q 1381 2694 1328 2901 
Q 1275 3109 1275 3300 
Q 1275 3834 1669 4116 
Q 1975 4334 2366 4334 
Q 2738 4334 2972 4114 
Q 3206 3894 3206 3572 
Q 3206 3241 2979 2991 
Q 2753 2741 2178 2444 
Q 2575 1738 3006 1150 
Q 3556 1806 3556 2256 
Q 3556 2400 3463 2513 
Q 3394 2597 3266 2613 
L 3266 2728 
z
M 2072 2647 
Q 2459 2831 2651 3065 
Q 2844 3300 2844 3588 
Q 2844 3813 2705 3959 
Q 2566 4106 2359 4106 
Q 2088 4106 1948 3917 
Q 1809 3728 1809 3547 
Q 1809 3394 1862 3205 
Q 1916 3016 2072 2647 
z
M 2556 694 
Q 2144 1256 1984 1515 
Q 1825 1775 1634 2159 
Q 1259 1944 1070 1684 
Q 881 1425 881 1122 
Q 881 788 1097 534 
Q 1313 281 1678 281 
Q 1875 281 2058 359 
Q 2241 438 2556 694 
z
" transform="scale(0.015625)"/>
       </defs>
       <use xlink:href="#TimesNewRomanPSMT-49"/>
       <use xlink:href="#TimesNewRomanPSMT-6e" transform="translate(33.300781 0)"/>
       <use xlink:href="#TimesNewRomanPSMT-74" transform="translate(83.300781 0)"/>
       <use xlink:href="#TimesNewRomanPSMT-65" transform="translate(111.083984 0)"/>
       <use xlink:href="#TimesNewRomanPSMT-67" transform="translate(155.46875 0)"/>
       <use xlink:href="#TimesNewRomanPSMT-72" transform="translate(205.46875 0)"/>
       <use xlink:href="#TimesNewRomanPSMT-69" transform="translate(238.769531 0)"/>
       <use xlink:href="#TimesNewRomanPSMT-74" transform="translate(266.552734 0)"/>
       <use xlink:href="#TimesNewRomanPSMT-79" transform="translate(294.335938 0)"/>
       <use xlink:href="#TimesNewRomanPSMT-20" transform="translate(344.335938 0)"/>
       <use xlink:href="#TimesNewRomanPSMT-26" transform="translate(369.335938 0)"/>
      </g>
      <!-- Confidentiality -->
      <g transform="translate(372.962546 626.731095) scale(0.11 -0.11)">
       <defs>
        <path id="TimesNewRomanPSMT-66" d="M 1319 2638 
L 1319 756 
Q 1319 356 1406 250 
Q 1522 113 1716 113 
L 1975 113 
L 1975 0 
L 266 0 
L 266 113 
L 394 113 
Q 519 113 622 175 
Q 725 238 764 344 
Q 803 450 803 756 
L 803 2638 
L 247 2638 
L 247 2863 
L 803 2863 
L 803 3050 
Q 803 3478 940 3775 
Q 1078 4072 1361 4255 
Q 1644 4438 1997 4438 
Q 2325 4438 2600 4225 
Q 2781 4084 2781 3909 
Q 2781 3816 2700 3733 
Q 2619 3650 2525 3650 
Q 2453 3650 2373 3701 
Q 2294 3753 2178 3923 
Q 2063 4094 1966 4153 
Q 1869 4213 1750 4213 
Q 1606 4213 1506 4136 
Q 1406 4059 1362 3898 
Q 1319 3738 1319 3069 
L 1319 2863 
L 2056 2863 
L 2056 2638 
L 1319 2638 
z
" transform="scale(0.015625)"/>
       </defs>
       <use xlink:href="#TimesNewRomanPSMT-43"/>
       <use xlink:href="#TimesNewRomanPSMT-6f" transform="translate(66.699219 0)"/>
       <use xlink:href="#TimesNewRomanPSMT-6e" transform="translate(116.699219 0)"/>
       <use xlink:href="#TimesNewRomanPSMT-66" transform="translate(166.699219 0)"/>
       <use xlink:href="#TimesNewRomanPSMT-69" transform="translate(200 0)"/>
       <use xlink:href="#TimesNewRomanPSMT-64" transform="translate(227.783203 0)"/>
       <use xlink:href="#TimesNewRomanPSMT-65" transform="translate(277.783203 0)"/>
       <use xlink:href="#TimesNewRomanPSMT-6e" transform="translate(322.167969 0)"/>
       <use xlink:href="#TimesNewRomanPSMT-74" transform="translate(372.167969 0)"/>
       <use xlink:href="#TimesNewRomanPSMT-69" transform="translate(399.951172 0)"/>
       <use xlink:href="#TimesNewRomanPSMT-61" transform="translate(427.734375 0)"/>
       <use xlink:href="#TimesNewRomanPSMT-6c" transform="translate(472.119141 0)"/>
       <use xlink:href="#TimesNewRomanPSMT-69" transform="translate(499.902344 0)"/>
       <use xlink:href="#TimesNewRomanPSMT-74" transform="translate(527.685547 0)"/>
       <use xlink:href="#TimesNewRomanPSMT-79" transform="translate(555.46875 0)"/>
      </g>
     </g>
    </g>
    <g id="xtick_10">
     <g id="line2d_10">
      <path d="M 316.277578 341.3815 
L 540.537089 504.315572 
" clip-path="url(#p99201439d6)" style="fill: none; stroke-dasharray: 2.96,1.28; stroke-dashoffset: 0; stroke: #b0b0b0; stroke-opacity: 0.5; stroke-width: 0.8"/>
     </g>
     <g id="text_10">
      <!-- Accountability -->
      <g transform="translate(519.176999 515.176831) scale(0.11 -0.11)">
       <use xlink:href="#TimesNewRomanPSMT-41"/>
       <use xlink:href="#TimesNewRomanPSMT-63" transform="translate(72.216797 0)"/>
       <use xlink:href="#TimesNewRomanPSMT-63" transform="translate(116.601562 0)"/>
       <use xlink:href="#TimesNewRomanPSMT-6f" transform="translate(160.986328 0)"/>
       <use xlink:href="#TimesNewRomanPSMT-75" transform="translate(210.986328 0)"/>
       <use xlink:href="#TimesNewRomanPSMT-6e" transform="translate(260.986328 0)"/>
       <use xlink:href="#TimesNewRomanPSMT-74" transform="translate(310.986328 0)"/>
       <use xlink:href="#TimesNewRomanPSMT-61" transform="translate(338.769531 0)"/>
       <use xlink:href="#TimesNewRomanPSMT-62" transform="translate(383.154297 0)"/>
       <use xlink:href="#TimesNewRomanPSMT-69" transform="translate(433.154297 0)"/>
       <use xlink:href="#TimesNewRomanPSMT-6c" transform="translate(460.9375 0)"/>
       <use xlink:href="#TimesNewRomanPSMT-69" transform="translate(488.720703 0)"/>
       <use xlink:href="#TimesNewRomanPSMT-74" transform="translate(516.503906 0)"/>
       <use xlink:href="#TimesNewRomanPSMT-79" transform="translate(544.287109 0)"/>
      </g>
     </g>
    </g>
   </g>
   <g id="matplotlib.axis_2">
    <g id="ytick_1">
     <g id="line2d_11">
      <path d="M 371.717578 341.3815 
C 371.717578 334.101186 370.283515 326.891664 367.497459 320.165531 
C 364.711404 313.439397 360.627538 307.32746 355.479578 302.1795 
C 350.331619 297.031541 344.219681 292.947674 337.493548 290.161619 
C 330.767414 287.375563 323.557892 285.9415 316.277578 285.9415 
C 308.997264 285.9415 301.787742 287.375563 295.061609 290.161619 
C 288.335475 292.947674 282.223538 297.031541 277.075578 302.1795 
C 271.927619 307.32746 267.843752 313.439397 265.057697 320.165531 
C 262.271641 326.891664 260.837578 334.101186 260.837578 341.3815 
C 260.837578 348.661814 262.271641 355.871336 265.057697 362.597469 
C 267.843752 369.323603 271.927619 375.43554 277.075578 380.5835 
C 282.223538 385.731459 288.335475 389.815326 295.061609 392.601381 
C 301.787742 395.387437 308.997264 396.8215 316.277578 396.8215 
C 323.557892 396.8215 330.767414 395.387437 337.493548 392.601381 
C 344.219681 389.815326 350.331619 385.731459 355.479578 380.5835 
C 360.627538 375.43554 364.711404 369.323603 367.497459 362.597469 
C 370.283515 355.871336 371.717578 348.661814 371.717578 341.3815 
" clip-path="url(#p99201439d6)" style="fill: none; stroke-dasharray: 2.96,1.28; stroke-dashoffset: 0; stroke: #b0b0b0; stroke-opacity: 0.5; stroke-width: 0.8"/>
     </g>
     <g id="text_11">
      <!-- 85% -->
      <g transform="translate(367.497459 318.026468) scale(0.1 -0.1)">
       <defs>
        <path id="TimesNewRomanPSMT-38" d="M 1228 2134 
Q 725 2547 579 2797 
Q 434 3047 434 3316 
Q 434 3728 753 4026 
Q 1072 4325 1600 4325 
Q 2113 4325 2425 4047 
Q 2738 3769 2738 3413 
Q 2738 3175 2569 2928 
Q 2400 2681 1866 2347 
Q 2416 1922 2594 1678 
Q 2831 1359 2831 1006 
Q 2831 559 2490 242 
Q 2150 -75 1597 -75 
Q 994 -75 656 303 
Q 388 606 388 966 
Q 388 1247 577 1523 
Q 766 1800 1228 2134 
z
M 1719 2469 
Q 2094 2806 2194 3001 
Q 2294 3197 2294 3444 
Q 2294 3772 2109 3958 
Q 1925 4144 1606 4144 
Q 1288 4144 1088 3959 
Q 888 3775 888 3528 
Q 888 3366 970 3203 
Q 1053 3041 1206 2894 
L 1719 2469 
z
M 1375 2016 
Q 1116 1797 991 1539 
Q 866 1281 866 981 
Q 866 578 1086 336 
Q 1306 94 1647 94 
Q 1984 94 2187 284 
Q 2391 475 2391 747 
Q 2391 972 2272 1150 
Q 2050 1481 1375 2016 
z
" transform="scale(0.015625)"/>
        <path id="TimesNewRomanPSMT-35" d="M 2778 4238 
L 2534 3706 
L 1259 3706 
L 981 3138 
Q 1809 3016 2294 2522 
Q 2709 2097 2709 1522 
Q 2709 1188 2573 903 
Q 2438 619 2231 419 
Q 2025 219 1772 97 
Q 1413 -75 1034 -75 
Q 653 -75 479 54 
Q 306 184 306 341 
Q 306 428 378 495 
Q 450 563 559 563 
Q 641 563 702 538 
Q 763 513 909 409 
Q 1144 247 1384 247 
Q 1750 247 2026 523 
Q 2303 800 2303 1197 
Q 2303 1581 2056 1914 
Q 1809 2247 1375 2428 
Q 1034 2569 447 2591 
L 1259 4238 
L 2778 4238 
z
" transform="scale(0.015625)"/>
        <path id="TimesNewRomanPSMT-25" d="M 4350 4334 
L 1263 -175 
L 984 -175 
L 4072 4334 
L 4350 4334 
z
M 1138 4334 
Q 1559 4334 1792 3984 
Q 2025 3634 2025 3181 
Q 2025 2638 1762 2341 
Q 1500 2044 1131 2044 
Q 884 2044 678 2180 
Q 472 2316 348 2584 
Q 225 2853 225 3181 
Q 225 3509 350 3786 
Q 475 4063 692 4198 
Q 909 4334 1138 4334 
z
M 1128 4159 
Q 969 4159 845 3971 
Q 722 3784 722 3184 
Q 722 2750 791 2522 
Q 844 2350 956 2256 
Q 1022 2200 1119 2200 
Q 1269 2200 1375 2363 
Q 1531 2603 1531 3166 
Q 1531 3759 1378 4000 
Q 1278 4159 1128 4159 
z
M 4206 2103 
Q 4428 2103 4648 1962 
Q 4869 1822 4989 1553 
Q 5109 1284 5109 963 
Q 5109 409 4843 117 
Q 4578 -175 4216 -175 
Q 3988 -175 3773 -34 
Q 3559 106 3436 367 
Q 3313 628 3313 963 
Q 3313 1291 3436 1562 
Q 3559 1834 3773 1968 
Q 3988 2103 4206 2103 
z
M 4209 1938 
Q 4059 1938 3950 1769 
Q 3809 1550 3809 941 
Q 3809 381 3953 159 
Q 4059 0 4209 0 
Q 4353 0 4466 172 
Q 4616 400 4616 956 
Q 4616 1544 4466 1778 
Q 4363 1938 4209 1938 
z
" transform="scale(0.015625)"/>
       </defs>
       <use xlink:href="#TimesNewRomanPSMT-38"/>
       <use xlink:href="#TimesNewRomanPSMT-35" transform="translate(50 0)"/>
       <use xlink:href="#TimesNewRomanPSMT-25" transform="translate(100 0)"/>
      </g>
     </g>
    </g>
    <g id="ytick_2">
     <g id="line2d_12">
      <path d="M 427.157578 341.3815 
C 427.157578 326.820872 424.289452 312.401827 418.717341 298.949561 
C 413.14523 285.497295 404.977497 273.273419 394.681578 262.9775 
C 384.385659 252.681581 372.161783 244.513849 358.709517 238.941737 
C 345.257251 233.369626 330.838206 230.5015 316.277578 230.5015 
C 301.71695 230.5015 287.297906 233.369626 273.845639 238.941737 
C 260.393373 244.513849 248.169497 252.681581 237.873578 262.9775 
C 227.577659 273.273419 219.409927 285.497295 213.837816 298.949561 
C 208.265704 312.401827 205.397578 326.820872 205.397578 341.3815 
C 205.397578 355.942128 208.265704 370.361173 213.837816 383.813439 
C 219.409927 397.265705 227.577659 409.489581 237.873578 419.7855 
C 248.169497 430.081419 260.393373 438.249151 273.845639 443.821263 
C 287.297906 449.393374 301.71695 452.2615 316.277578 452.2615 
C 330.838206 452.2615 345.257251 449.393374 358.709517 443.821263 
C 372.161783 438.249151 384.385659 430.081419 394.681578 419.7855 
C 404.977497 409.489581 413.14523 397.265705 418.717341 383.813439 
C 424.289452 370.361173 427.157578 355.942128 427.157578 341.3815 
" clip-path="url(#p99201439d6)" style="fill: none; stroke-dasharray: 2.96,1.28; stroke-dashoffset: 0; stroke: #b0b0b0; stroke-opacity: 0.5; stroke-width: 0.8"/>
     </g>
     <g id="text_12">
      <!-- 90% -->
      <g transform="translate(418.717341 296.810499) scale(0.1 -0.1)">
       <defs>
        <path id="TimesNewRomanPSMT-39" d="M 338 -88 
L 338 28 
Q 744 34 1094 217 
Q 1444 400 1770 856 
Q 2097 1313 2225 1859 
Q 1734 1544 1338 1544 
Q 891 1544 572 1889 
Q 253 2234 253 2806 
Q 253 3363 572 3797 
Q 956 4325 1575 4325 
Q 2097 4325 2469 3894 
Q 2925 3359 2925 2575 
Q 2925 1869 2578 1258 
Q 2231 647 1613 244 
Q 1109 -88 516 -88 
L 338 -88 
z
M 2275 2091 
Q 2331 2497 2331 2741 
Q 2331 3044 2228 3395 
Q 2125 3747 1936 3934 
Q 1747 4122 1506 4122 
Q 1228 4122 1018 3872 
Q 809 3622 809 3128 
Q 809 2469 1088 2097 
Q 1291 1828 1588 1828 
Q 1731 1828 1928 1897 
Q 2125 1966 2275 2091 
z
" transform="scale(0.015625)"/>
        <path id="TimesNewRomanPSMT-30" d="M 231 2094 
Q 231 2819 450 3342 
Q 669 3866 1031 4122 
Q 1313 4325 1613 4325 
Q 2100 4325 2488 3828 
Q 2972 3213 2972 2159 
Q 2972 1422 2759 906 
Q 2547 391 2217 158 
Q 1888 -75 1581 -75 
Q 975 -75 572 641 
Q 231 1244 231 2094 
z
M 844 2016 
Q 844 1141 1059 588 
Q 1238 122 1591 122 
Q 1759 122 1940 273 
Q 2122 425 2216 781 
Q 2359 1319 2359 2297 
Q 2359 3022 2209 3506 
Q 2097 3866 1919 4016 
Q 1791 4119 1609 4119 
Q 1397 4119 1231 3928 
Q 1006 3669 925 3112 
Q 844 2556 844 2016 
z
" transform="scale(0.015625)"/>
       </defs>
       <use xlink:href="#TimesNewRomanPSMT-39"/>
       <use xlink:href="#TimesNewRomanPSMT-30" transform="translate(50 0)"/>
       <use xlink:href="#TimesNewRomanPSMT-25" transform="translate(100 0)"/>
      </g>
     </g>
    </g>
    <g id="ytick_3">
     <g id="line2d_13">
      <path d="M 482.597578 341.3815 
C 482.597578 319.540558 478.295389 297.911991 469.937222 277.733592 
C 461.579055 257.555192 449.327456 239.219379 433.883578 223.7755 
C 418.4397 208.331622 400.103886 196.080023 379.925487 187.721856 
C 359.747087 179.363689 338.11852 175.0615 316.277578 175.0615 
C 294.436636 175.0615 272.808069 179.363689 252.62967 187.721856 
C 232.45127 196.080023 214.115457 208.331622 198.671578 223.7755 
C 183.2277 239.219379 170.976101 257.555192 162.617934 277.733592 
C 154.259768 297.911991 149.957578 319.540558 149.957578 341.3815 
C 149.957578 363.222442 154.259768 384.851009 162.617934 405.029408 
C 170.976101 425.207808 183.2277 443.543621 198.671578 458.9875 
C 214.115457 474.431378 232.45127 486.682977 252.62967 495.041144 
C 272.808069 503.399311 294.436636 507.7015 316.277578 507.7015 
C 338.11852 507.7015 359.747087 503.399311 379.925487 495.041144 
C 400.103886 486.682977 418.4397 474.431378 433.883578 458.9875 
C 449.327456 443.543621 461.579055 425.207808 469.937222 405.029408 
C 478.295389 384.851009 482.597578 363.222442 482.597578 341.3815 
" clip-path="url(#p99201439d6)" style="fill: none; stroke-dasharray: 2.96,1.28; stroke-dashoffset: 0; stroke: #b0b0b0; stroke-opacity: 0.5; stroke-width: 0.8"/>
     </g>
     <g id="text_13">
      <!-- 95% -->
      <g transform="translate(469.937222 275.594529) scale(0.1 -0.1)">
       <use xlink:href="#TimesNewRomanPSMT-39"/>
       <use xlink:href="#TimesNewRomanPSMT-35" transform="translate(50 0)"/>
       <use xlink:href="#TimesNewRomanPSMT-25" transform="translate(100 0)"/>
      </g>
     </g>
    </g>
    <g id="ytick_4">
     <g id="line2d_14">
      <path d="M 538.037578 341.3815 
C 538.037578 312.260244 532.301326 283.422155 521.157103 256.517622 
C 510.012881 229.613089 493.677416 205.165338 473.085578 184.5735 
C 452.49374 163.981662 428.045989 147.646197 401.141456 136.501975 
C 374.236923 125.357753 345.398835 119.6215 316.277578 119.6215 
C 287.156322 119.6215 258.318233 125.357753 231.4137 136.501975 
C 204.509167 147.646197 180.061416 163.981662 159.469578 184.5735 
C 138.87774 205.165338 122.542275 229.613089 111.398053 256.517622 
C 100.253831 283.422155 94.517578 312.260244 94.517578 341.3815 
C 94.517578 370.502756 100.253831 399.340845 111.398053 426.245378 
C 122.542275 453.149911 138.87774 477.597662 159.469578 498.1895 
C 180.061416 518.781338 204.509167 535.116803 231.4137 546.261025 
C 258.318233 557.405247 287.156322 563.1415 316.277578 563.1415 
C 345.398835 563.1415 374.236923 557.405247 401.141456 546.261025 
C 428.045989 535.116803 452.49374 518.781338 473.085578 498.1895 
C 493.677416 477.597662 510.012881 453.149911 521.157103 426.245378 
C 532.301326 399.340845 538.037578 370.502756 538.037578 341.3815 
" clip-path="url(#p99201439d6)" style="fill: none; stroke-dasharray: 2.96,1.28; stroke-dashoffset: 0; stroke: #b0b0b0; stroke-opacity: 0.5; stroke-width: 0.8"/>
     </g>
     <g id="text_14">
      <!-- 100% -->
      <g transform="translate(521.157103 254.37856) scale(0.1 -0.1)">
       <defs>
        <path id="TimesNewRomanPSMT-31" d="M 750 3822 
L 1781 4325 
L 1884 4325 
L 1884 747 
Q 1884 391 1914 303 
Q 1944 216 2037 169 
Q 2131 122 2419 116 
L 2419 0 
L 825 0 
L 825 116 
Q 1125 122 1212 167 
Q 1300 213 1334 289 
Q 1369 366 1369 747 
L 1369 3034 
Q 1369 3497 1338 3628 
Q 1316 3728 1258 3775 
Q 1200 3822 1119 3822 
Q 1003 3822 797 3725 
L 750 3822 
z
" transform="scale(0.015625)"/>
       </defs>
       <use xlink:href="#TimesNewRomanPSMT-31"/>
       <use xlink:href="#TimesNewRomanPSMT-30" transform="translate(50 0)"/>
       <use xlink:href="#TimesNewRomanPSMT-30" transform="translate(100 0)"/>
       <use xlink:href="#TimesNewRomanPSMT-25" transform="translate(150 0)"/>
      </g>
     </g>
    </g>
   </g>
   <g id="line2d_15">
    <path d="M 538.037578 341.3815 
L 495.685187 211.034242 
L 384.805187 130.475207 
L 247.749969 130.475207 
L 136.869969 211.034242 
L 94.517578 341.3815 
L 226.573774 406.555129 
L 247.749969 552.287793 
L 384.805187 552.287793 
L 495.685187 471.728758 
L 538.037578 341.3815 
" clip-path="url(#p99201439d6)" style="fill: none; stroke: #06a77d; stroke-width: 2; stroke-linecap: square"/>
    <defs>
     <path id="ma6939c935f" d="M 0 3 
C 0.795609 3 1.55874 2.683901 2.12132 2.12132 
C 2.683901 1.55874 3 0.795609 3 0 
C 3 -0.795609 2.683901 -1.55874 2.12132 -2.12132 
C 1.55874 -2.683901 0.795609 -3 0 -3 
C -0.795609 -3 -1.55874 -2.683901 -2.12132 -2.12132 
C -2.683901 -1.55874 -3 -0.795609 -3 0 
C -3 0.795609 -2.683901 1.55874 -2.12132 2.12132 
C -1.55874 2.683901 -0.795609 3 0 3 
z
" style="stroke: #06a77d"/>
    </defs>
    <g clip-path="url(#p99201439d6)">
     <use xlink:href="#ma6939c935f" x="538.037578" y="341.3815" style="fill: #06a77d; stroke: #06a77d"/>
     <use xlink:href="#ma6939c935f" x="495.685187" y="211.034242" style="fill: #06a77d; stroke: #06a77d"/>
     <use xlink:href="#ma6939c935f" x="384.805187" y="130.475207" style="fill: #06a77d; stroke: #06a77d"/>
     <use xlink:href="#ma6939c935f" x="247.749969" y="130.475207" style="fill: #06a77d; stroke: #06a77d"/>
     <use xlink:href="#ma6939c935f" x="136.869969" y="211.034242" style="fill: #06a77d; stroke: #06a77d"/>
     <use xlink:href="#ma6939c935f" x="94.517578" y="341.3815" style="fill: #06a77d; stroke: #06a77d"/>
     <use xlink:href="#ma6939c935f" x="226.573774" y="406.555129" style="fill: #06a77d; stroke: #06a77d"/>
     <use xlink:href="#ma6939c935f" x="247.749969" y="552.287793" style="fill: #06a77d; stroke: #06a77d"/>
     <use xlink:href="#ma6939c935f" x="384.805187" y="552.287793" style="fill: #06a77d; stroke: #06a77d"/>
     <use xlink:href="#ma6939c935f" x="495.685187" y="471.728758" style="fill: #06a77d; stroke: #06a77d"/>
     <use xlink:href="#ma6939c935f" x="538.037578" y="341.3815" style="fill: #06a77d; stroke: #06a77d"/>
    </g>
   </g>
   <g id="line2d_16">
    <path d="M 482.597578 341.3815 
L 450.833285 243.621057 
L 367.673285 183.20178 
L 264.881872 183.20178 
L 181.721872 243.621057 
L 149.957578 341.3815 
L 181.721872 439.141943 
L 264.881872 499.56122 
L 367.673285 499.56122 
L 450.833285 439.141943 
L 482.597578 341.3815 
" clip-path="url(#p99201439d6)" style="fill: none; stroke-dasharray: 7.4,3.2; stroke-dashoffset: 0; stroke: #d90429; stroke-opacity: 0.7; stroke-width: 2"/>
   </g>
   <g id="patch_4">
    <path d="M 593.477578 341.3815 
C 593.477578 304.97993 586.307262 268.932318 572.376985 235.301653 
C 558.446707 201.670987 538.027375 171.111298 512.287578 145.3715 
C 486.547781 119.631703 455.988091 99.212372 422.357426 85.282094 
C 388.72676 71.351816 352.679149 64.1815 316.277578 64.1815 
C 279.876008 64.1815 243.828397 71.351816 210.197731 85.282094 
C 176.567065 99.212372 146.007376 119.631703 120.267578 145.3715 
C 94.527781 171.111298 74.10845 201.670987 60.178172 235.301653 
C 46.247894 268.932318 39.077578 304.97993 39.077578 341.3815 
C 39.077578 377.78307 46.247894 413.830682 60.178172 447.461347 
C 74.10845 481.092013 94.527781 511.651702 120.267578 537.3915 
C 146.007376 563.131297 176.567065 583.550628 210.197731 597.480906 
C 243.828397 611.411184 279.876008 618.5815 316.277578 618.5815 
C 352.679149 618.5815 388.72676 611.411184 422.357426 597.480906 
C 455.988091 583.550628 486.547781 563.131297 512.287578 537.3915 
C 538.027375 511.651702 558.446707 481.092013 572.376985 447.461347 
C 586.307262 413.830682 593.477578 377.78307 593.477578 341.3815 
" style="fill: none; stroke: #000000; stroke-width: 0.8; stroke-linejoin: miter; stroke-linecap: square"/>
   </g>
   <g id="text_15">
    <!-- H4: GDPR/HIPAA Compliance Radar Chart -->
    <g transform="translate(162.792578 18.045) scale(0.16 -0.16)">
     <defs>
      <path id="TimesNewRomanPS-BoldMT-48" d="M 1750 2038 
L 1750 725 
Q 1750 400 1786 319 
Q 1822 238 1926 177 
Q 2031 116 2209 116 
L 2350 116 
L 2350 0 
L 134 0 
L 134 116 
L 275 116 
Q 459 116 572 181 
Q 653 225 697 331 
Q 731 406 731 725 
L 731 3513 
Q 731 3838 697 3919 
Q 663 4000 558 4061 
Q 453 4122 275 4122 
L 134 4122 
L 134 4238 
L 2350 4238 
L 2350 4122 
L 2209 4122 
Q 2025 4122 1913 4056 
Q 1831 4013 1784 3906 
Q 1750 3831 1750 3513 
L 1750 2313 
L 3247 2313 
L 3247 3513 
Q 3247 3838 3212 3919 
Q 3178 4000 3072 4061 
Q 2966 4122 2788 4122 
L 2650 4122 
L 2650 4238 
L 4863 4238 
L 4863 4122 
L 4725 4122 
Q 4538 4122 4428 4056 
Q 4347 4013 4300 3906 
Q 4266 3831 4266 3513 
L 4266 725 
Q 4266 400 4300 319 
Q 4334 238 4440 177 
Q 4547 116 4725 116 
L 4863 116 
L 4863 0 
L 2650 0 
L 2650 116 
L 2788 116 
Q 2975 116 3084 181 
Q 3166 225 3213 331 
Q 3247 406 3247 725 
L 3247 2038 
L 1750 2038 
z
" transform="scale(0.015625)"/>
      <path id="TimesNewRomanPS-BoldMT-34" d="M 159 1597 
L 2172 4325 
L 2553 4325 
L 2553 1597 
L 2941 1597 
L 2941 950 
L 2553 950 
L 2553 0 
L 1694 0 
L 1694 950 
L 159 950 
L 159 1597 
z
M 463 1597 
L 1694 1597 
L 1694 3269 
L 463 1597 
z
" transform="scale(0.015625)"/>
      <path id="TimesNewRomanPS-BoldMT-3a" d="M 1069 3006 
Q 1284 3006 1436 2854 
Q 1588 2703 1588 2488 
Q 1588 2272 1436 2120 
Q 1284 1969 1069 1969 
Q 853 1969 701 2120 
Q 550 2272 550 2488 
Q 550 2703 701 2854 
Q 853 3006 1069 3006 
z
M 1066 963 
Q 1284 963 1436 809 
Q 1588 656 1588 441 
Q 1588 225 1434 73 
Q 1281 -78 1066 -78 
Q 850 -78 698 73 
Q 547 225 547 441 
Q 547 656 698 809 
Q 850 963 1066 963 
z
" transform="scale(0.015625)"/>
      <path id="TimesNewRomanPS-BoldMT-20" transform="scale(0.015625)"/>
      <path id="TimesNewRomanPS-BoldMT-47" d="M 4416 4334 
L 4416 2841 
L 4300 2841 
Q 4091 3453 3672 3772 
Q 3253 4091 2756 4091 
Q 2281 4091 1965 3823 
Q 1650 3556 1519 3078 
Q 1388 2600 1388 2097 
Q 1388 1488 1531 1028 
Q 1675 569 1995 353 
Q 2316 138 2756 138 
Q 2909 138 3070 170 
Q 3231 203 3400 266 
L 3400 1147 
Q 3400 1397 3365 1470 
Q 3331 1544 3223 1603 
Q 3116 1663 2963 1663 
L 2853 1663 
L 2853 1778 
L 4913 1778 
L 4913 1663 
Q 4678 1647 4586 1598 
Q 4494 1550 4444 1438 
Q 4416 1378 4416 1147 
L 4416 266 
Q 4009 84 3570 -8 
Q 3131 -100 2659 -100 
Q 2056 -100 1657 64 
Q 1259 228 954 495 
Q 650 763 478 1097 
Q 259 1528 259 2063 
Q 259 3019 931 3678 
Q 1603 4338 2622 4338 
Q 2938 4338 3191 4288 
Q 3328 4263 3636 4145 
Q 3944 4028 4000 4028 
Q 4088 4028 4163 4092 
Q 4238 4156 4300 4334 
L 4416 4334 
z
" transform="scale(0.015625)"/>
      <path id="TimesNewRomanPS-BoldMT-44" d="M 84 0 
L 84 116 
L 225 116 
Q 409 116 507 173 
Q 606 231 653 331 
Q 681 397 681 725 
L 681 3513 
Q 681 3838 647 3919 
Q 613 4000 508 4061 
Q 403 4122 225 4122 
L 84 4122 
L 84 4238 
L 1981 4238 
Q 2741 4238 3203 4031 
Q 3769 3778 4061 3265 
Q 4353 2753 4353 2106 
Q 4353 1659 4209 1282 
Q 4066 906 3837 661 
Q 3609 416 3311 267 
Q 3013 119 2581 38 
Q 2391 0 1981 0 
L 84 0 
z
M 1700 3997 
L 1700 691 
Q 1700 428 1725 368 
Q 1750 309 1809 278 
Q 1894 231 2053 231 
Q 2575 231 2850 588 
Q 3225 1069 3225 2081 
Q 3225 2897 2969 3384 
Q 2766 3766 2447 3903 
Q 2222 4000 1700 3997 
z
" transform="scale(0.015625)"/>
      <path id="TimesNewRomanPS-BoldMT-50" d="M 1728 1919 
L 1728 744 
Q 1728 400 1770 311 
Q 1813 222 1920 169 
Q 2028 116 2316 116 
L 2316 0 
L 163 0 
L 163 116 
Q 456 116 561 170 
Q 666 225 708 312 
Q 750 400 750 744 
L 750 3494 
Q 750 3838 708 3927 
Q 666 4016 559 4069 
Q 453 4122 163 4122 
L 163 4238 
L 2009 4238 
Q 2922 4238 3319 3913 
Q 3716 3588 3716 3100 
Q 3716 2688 3459 2394 
Q 3203 2100 2753 1994 
Q 2450 1919 1728 1919 
z
M 1728 3994 
L 1728 2163 
Q 1831 2156 1884 2156 
Q 2266 2156 2472 2382 
Q 2678 2609 2678 3084 
Q 2678 3556 2472 3775 
Q 2266 3994 1856 3994 
L 1728 3994 
z
" transform="scale(0.015625)"/>
      <path id="TimesNewRomanPS-BoldMT-52" d="M 1700 1931 
L 1700 744 
Q 1700 400 1742 311 
Q 1784 222 1890 169 
Q 1997 116 2288 116 
L 2288 0 
L 119 0 
L 119 116 
Q 413 116 517 170 
Q 622 225 664 312 
Q 706 400 706 744 
L 706 3494 
Q 706 3838 664 3927 
Q 622 4016 515 4069 
Q 409 4122 119 4122 
L 119 4238 
L 2088 4238 
Q 2856 4238 3212 4131 
Q 3569 4025 3794 3739 
Q 4019 3453 4019 3069 
Q 4019 2600 3681 2294 
Q 3466 2100 3078 2003 
L 4097 569 
Q 4297 291 4381 222 
Q 4509 125 4678 116 
L 4678 0 
L 3344 0 
L 1978 1931 
L 1700 1931 
z
M 1700 4009 
L 1700 2153 
L 1878 2153 
Q 2313 2153 2528 2233 
Q 2744 2313 2867 2520 
Q 2991 2728 2991 3063 
Q 2991 3547 2764 3778 
Q 2538 4009 2034 4009 
L 1700 4009 
z
" transform="scale(0.015625)"/>
      <path id="TimesNewRomanPS-BoldMT-2f" d="M 1797 4334 
L 406 -97 
L 6 -97 
L 1403 4334 
L 1797 4334 
z
" transform="scale(0.015625)"/>
      <path id="TimesNewRomanPS-BoldMT-49" d="M 2344 116 
L 2344 0 
L 128 0 
L 128 116 
L 269 116 
Q 453 116 566 181 
Q 647 225 691 331 
Q 725 406 725 725 
L 725 3513 
Q 725 3838 690 3919 
Q 656 4000 551 4061 
Q 447 4122 269 4122 
L 128 4122 
L 128 4238 
L 2344 4238 
L 2344 4122 
L 2203 4122 
Q 2019 4122 1906 4056 
Q 1825 4013 1778 3906 
Q 1744 3831 1744 3513 
L 1744 725 
Q 1744 400 1780 319 
Q 1816 238 1920 177 
Q 2025 116 2203 116 
L 2344 116 
z
" transform="scale(0.015625)"/>
      <path id="TimesNewRomanPS-BoldMT-41" d="M 2663 1206 
L 1166 1206 
L 988 794 
Q 900 588 900 453 
Q 900 275 1044 191 
Q 1128 141 1459 116 
L 1459 0 
L 50 0 
L 50 116 
Q 278 150 425 304 
Q 572 459 788 944 
L 2303 4325 
L 2363 4325 
L 3891 850 
Q 4109 356 4250 228 
Q 4356 131 4550 116 
L 4550 0 
L 2500 0 
L 2500 116 
L 2584 116 
Q 2831 116 2931 184 
Q 3000 234 3000 328 
Q 3000 384 2981 444 
Q 2975 472 2888 678 
L 2663 1206 
z
M 2556 1438 
L 1925 2897 
L 1275 1438 
L 2556 1438 
z
" transform="scale(0.015625)"/>
      <path id="TimesNewRomanPS-BoldMT-43" d="M 4272 4334 
L 4272 2866 
L 4150 2866 
Q 4013 3441 3638 3747 
Q 3263 4053 2788 4053 
Q 2391 4053 2059 3825 
Q 1728 3597 1575 3228 
Q 1378 2756 1378 2178 
Q 1378 1609 1522 1142 
Q 1666 675 1972 436 
Q 2278 197 2766 197 
Q 3166 197 3498 372 
Q 3831 547 4200 975 
L 4200 609 
Q 3844 238 3458 70 
Q 3072 -97 2556 -97 
Q 1878 -97 1351 175 
Q 825 447 539 956 
Q 253 1466 253 2041 
Q 253 2647 570 3190 
Q 888 3734 1427 4034 
Q 1966 4334 2572 4334 
Q 3019 4334 3516 4141 
Q 3803 4028 3881 4028 
Q 3981 4028 4054 4101 
Q 4128 4175 4150 4334 
L 4272 4334 
z
" transform="scale(0.015625)"/>
      <path id="TimesNewRomanPS-BoldMT-6f" d="M 1594 3009 
Q 1975 3009 2303 2812 
Q 2631 2616 2801 2253 
Q 2972 1891 2972 1459 
Q 2972 838 2656 419 
Q 2275 -88 1603 -88 
Q 944 -88 587 375 
Q 231 838 231 1447 
Q 231 2075 595 2542 
Q 959 3009 1594 3009 
z
M 1606 2788 
Q 1447 2788 1333 2667 
Q 1219 2547 1183 2192 
Q 1147 1838 1147 1206 
Q 1147 872 1191 581 
Q 1225 359 1337 243 
Q 1450 128 1594 128 
Q 1734 128 1828 206 
Q 1950 313 1991 503 
Q 2053 800 2053 1703 
Q 2053 2234 1993 2432 
Q 1934 2631 1819 2722 
Q 1738 2788 1606 2788 
z
" transform="scale(0.015625)"/>
      <path id="TimesNewRomanPS-BoldMT-6d" d="M 1428 2922 
L 1428 2538 
Q 1669 2800 1873 2904 
Q 2078 3009 2322 3009 
Q 2603 3009 2793 2878 
Q 2984 2747 3088 2478 
Q 3338 2759 3567 2884 
Q 3797 3009 4047 3009 
Q 4350 3009 4529 2870 
Q 4709 2731 4779 2517 
Q 4850 2303 4850 1834 
L 4850 638 
Q 4850 300 4911 219 
Q 4972 138 5166 113 
L 5166 0 
L 3656 0 
L 3656 113 
Q 3834 128 3919 250 
Q 3975 334 3975 638 
L 3975 1894 
Q 3975 2284 3944 2390 
Q 3913 2497 3845 2548 
Q 3778 2600 3688 2600 
Q 3553 2600 3415 2501 
Q 3278 2403 3138 2206 
L 3138 638 
Q 3138 322 3191 241 
Q 3263 125 3466 113 
L 3466 0 
L 1953 0 
L 1953 113 
Q 2075 119 2145 173 
Q 2216 228 2239 304 
Q 2263 381 2263 638 
L 2263 1894 
Q 2263 2291 2231 2391 
Q 2200 2491 2126 2547 
Q 2053 2603 1969 2603 
Q 1844 2603 1741 2538 
Q 1594 2441 1428 2206 
L 1428 638 
Q 1428 328 1489 229 
Q 1550 131 1744 113 
L 1744 0 
L 238 0 
L 238 113 
Q 422 131 500 231 
Q 553 300 553 638 
L 553 2288 
Q 553 2619 492 2700 
Q 431 2781 238 2806 
L 238 2922 
L 1428 2922 
z
" transform="scale(0.015625)"/>
      <path id="TimesNewRomanPS-BoldMT-70" d="M 1347 297 
L 1347 -791 
Q 1347 -1016 1383 -1097 
Q 1419 -1178 1494 -1215 
Q 1569 -1253 1788 -1253 
L 1788 -1369 
L 122 -1369 
L 122 -1253 
Q 316 -1247 409 -1144 
Q 472 -1072 472 -772 
L 472 2313 
Q 472 2622 400 2708 
Q 328 2794 122 2806 
L 122 2922 
L 1347 2922 
L 1347 2538 
Q 1500 2763 1659 2863 
Q 1888 3009 2156 3009 
Q 2478 3009 2742 2806 
Q 3006 2603 3143 2245 
Q 3281 1888 3281 1475 
Q 3281 1031 3139 664 
Q 2997 297 2726 104 
Q 2456 -88 2125 -88 
Q 1884 -88 1675 19 
Q 1519 100 1347 297 
z
M 1347 613 
Q 1616 231 1922 231 
Q 2091 231 2200 409 
Q 2363 672 2363 1409 
Q 2363 2166 2184 2444 
Q 2066 2628 1866 2628 
Q 1550 2628 1347 2172 
L 1347 613 
z
" transform="scale(0.015625)"/>
      <path id="TimesNewRomanPS-BoldMT-6c" d="M 1359 4238 
L 1359 606 
Q 1359 297 1431 211 
Q 1503 125 1713 113 
L 1713 0 
L 134 0 
L 134 113 
Q 328 119 422 225 
Q 484 297 484 606 
L 484 3631 
Q 484 3938 412 4023 
Q 341 4109 134 4122 
L 134 4238 
L 1359 4238 
z
" transform="scale(0.015625)"/>
      <path id="TimesNewRomanPS-BoldMT-69" d="M 919 4338 
Q 1122 4338 1262 4195 
Q 1403 4053 1403 3853 
Q 1403 3653 1261 3512 
Q 1119 3372 919 3372 
Q 719 3372 578 3512 
Q 438 3653 438 3853 
Q 438 4053 578 4195 
Q 719 4338 919 4338 
z
M 1356 2922 
L 1356 606 
Q 1356 297 1428 211 
Q 1500 125 1709 113 
L 1709 0 
L 131 0 
L 131 113 
Q 325 119 419 225 
Q 481 297 481 606 
L 481 2313 
Q 481 2622 409 2708 
Q 338 2794 131 2806 
L 131 2922 
L 1356 2922 
z
" transform="scale(0.015625)"/>
      <path id="TimesNewRomanPS-BoldMT-61" d="M 1828 431 
Q 1294 -41 869 -41 
Q 619 -41 453 123 
Q 288 288 288 534 
Q 288 869 575 1136 
Q 863 1403 1828 1847 
L 1828 2141 
Q 1828 2472 1792 2558 
Q 1756 2644 1656 2708 
Q 1556 2772 1431 2772 
Q 1228 2772 1097 2681 
Q 1016 2625 1016 2550 
Q 1016 2484 1103 2388 
Q 1222 2253 1222 2128 
Q 1222 1975 1108 1867 
Q 994 1759 809 1759 
Q 613 1759 480 1878 
Q 347 1997 347 2156 
Q 347 2381 525 2586 
Q 703 2791 1022 2900 
Q 1341 3009 1684 3009 
Q 2100 3009 2342 2832 
Q 2584 2656 2656 2450 
Q 2700 2319 2700 1847 
L 2700 713 
Q 2700 513 2715 461 
Q 2731 409 2762 384 
Q 2794 359 2834 359 
Q 2916 359 3000 475 
L 3094 400 
Q 2938 169 2770 64 
Q 2603 -41 2391 -41 
Q 2141 -41 2000 76 
Q 1859 194 1828 431 
z
M 1828 659 
L 1828 1638 
Q 1450 1416 1266 1163 
Q 1144 994 1144 822 
Q 1144 678 1247 569 
Q 1325 484 1466 484 
Q 1622 484 1828 659 
z
" transform="scale(0.015625)"/>
      <path id="TimesNewRomanPS-BoldMT-6e" d="M 1409 2922 
L 1409 2544 
Q 1634 2788 1840 2898 
Q 2047 3009 2284 3009 
Q 2569 3009 2756 2851 
Q 2944 2694 3006 2459 
Q 3056 2281 3056 1775 
L 3056 638 
Q 3056 300 3117 217 
Q 3178 134 3372 113 
L 3372 0 
L 1894 0 
L 1894 113 
Q 2059 134 2131 250 
Q 2181 328 2181 638 
L 2181 1938 
Q 2181 2297 2153 2390 
Q 2125 2484 2058 2536 
Q 1991 2588 1909 2588 
Q 1641 2588 1409 2203 
L 1409 638 
Q 1409 309 1470 221 
Q 1531 134 1697 113 
L 1697 0 
L 219 0 
L 219 113 
Q 403 131 481 231 
Q 534 300 534 638 
L 534 2288 
Q 534 2619 473 2700 
Q 413 2781 219 2806 
L 219 2922 
L 1409 2922 
z
" transform="scale(0.015625)"/>
      <path id="TimesNewRomanPS-BoldMT-63" d="M 2600 753 
L 2697 678 
Q 2491 291 2183 101 
Q 1875 -88 1528 -88 
Q 944 -88 594 353 
Q 244 794 244 1413 
Q 244 2009 563 2463 
Q 947 3009 1622 3009 
Q 2075 3009 2342 2781 
Q 2609 2553 2609 2272 
Q 2609 2094 2501 1987 
Q 2394 1881 2219 1881 
Q 2034 1881 1914 2003 
Q 1794 2125 1766 2438 
Q 1747 2634 1675 2713 
Q 1603 2791 1506 2791 
Q 1356 2791 1250 2631 
Q 1088 2391 1088 1894 
Q 1088 1481 1219 1104 
Q 1350 728 1578 544 
Q 1750 409 1984 409 
Q 2138 409 2275 481 
Q 2413 553 2600 753 
z
" transform="scale(0.015625)"/>
      <path id="TimesNewRomanPS-BoldMT-65" d="M 2691 1566 
L 1088 1566 
Q 1116 984 1397 647 
Q 1613 388 1916 388 
Q 2103 388 2256 492 
Q 2409 597 2584 869 
L 2691 800 
Q 2453 316 2165 114 
Q 1878 -88 1500 -88 
Q 850 -88 516 413 
Q 247 816 247 1413 
Q 247 2144 642 2576 
Q 1038 3009 1569 3009 
Q 2013 3009 2339 2645 
Q 2666 2281 2691 1566 
z
M 1922 1775 
Q 1922 2278 1867 2465 
Q 1813 2653 1697 2750 
Q 1631 2806 1522 2806 
Q 1359 2806 1256 2647 
Q 1072 2369 1072 1884 
L 1072 1775 
L 1922 1775 
z
" transform="scale(0.015625)"/>
      <path id="TimesNewRomanPS-BoldMT-64" d="M 3056 4238 
L 3056 875 
Q 3056 534 3075 472 
Q 3100 369 3170 319 
Q 3241 269 3416 256 
L 3416 153 
L 2181 -88 
L 2181 375 
Q 1959 106 1786 9 
Q 1613 -88 1394 -88 
Q 834 -88 509 413 
Q 247 819 247 1409 
Q 247 1881 409 2254 
Q 572 2628 855 2818 
Q 1138 3009 1463 3009 
Q 1672 3009 1834 2928 
Q 1997 2847 2181 2644 
L 2181 3525 
Q 2181 3859 2153 3928 
Q 2116 4019 2041 4062 
Q 1966 4106 1759 4106 
L 1759 4238 
L 3056 4238 
z
M 2181 2256 
Q 1950 2700 1616 2700 
Q 1500 2700 1425 2638 
Q 1309 2541 1236 2297 
Q 1163 2053 1163 1550 
Q 1163 997 1244 731 
Q 1325 466 1466 347 
Q 1538 288 1663 288 
Q 1938 288 2181 719 
L 2181 2256 
z
" transform="scale(0.015625)"/>
      <path id="TimesNewRomanPS-BoldMT-72" d="M 1428 2922 
L 1428 2259 
Q 1719 2713 1937 2861 
Q 2156 3009 2359 3009 
Q 2534 3009 2639 2901 
Q 2744 2794 2744 2597 
Q 2744 2388 2642 2272 
Q 2541 2156 2397 2156 
Q 2231 2156 2109 2262 
Q 1988 2369 1966 2381 
Q 1934 2400 1894 2400 
Q 1803 2400 1722 2331 
Q 1594 2225 1528 2028 
Q 1428 1725 1428 1359 
L 1428 688 
L 1431 513 
Q 1431 334 1453 284 
Q 1491 200 1564 161 
Q 1638 122 1813 113 
L 1813 0 
L 234 0 
L 234 113 
Q 425 128 492 217 
Q 559 306 559 688 
L 559 2303 
Q 559 2553 534 2622 
Q 503 2709 443 2750 
Q 384 2791 234 2806 
L 234 2922 
L 1428 2922 
z
" transform="scale(0.015625)"/>
      <path id="TimesNewRomanPS-BoldMT-68" d="M 1409 4238 
L 1409 2547 
Q 1650 2800 1850 2904 
Q 2050 3009 2266 3009 
Q 2541 3009 2736 2853 
Q 2931 2697 2995 2486 
Q 3059 2275 3059 1775 
L 3059 634 
Q 3059 300 3121 217 
Q 3184 134 3375 113 
L 3375 0 
L 1894 0 
L 1894 113 
Q 2050 134 2128 238 
Q 2184 319 2184 634 
L 2184 1938 
Q 2184 2300 2156 2392 
Q 2128 2484 2061 2536 
Q 1994 2588 1909 2588 
Q 1784 2588 1665 2502 
Q 1547 2416 1409 2200 
L 1409 634 
Q 1409 322 1456 244 
Q 1516 138 1700 113 
L 1700 0 
L 219 0 
L 219 113 
Q 403 131 481 231 
Q 534 300 534 634 
L 534 3603 
Q 534 3934 473 4015 
Q 413 4097 219 4122 
L 219 4238 
L 1409 4238 
z
" transform="scale(0.015625)"/>
      <path id="TimesNewRomanPS-BoldMT-74" d="M 1375 3991 
L 1375 2922 
L 2069 2922 
L 2069 2613 
L 1375 2613 
L 1375 809 
Q 1375 556 1398 482 
Q 1422 409 1481 364 
Q 1541 319 1591 319 
Q 1794 319 1975 628 
L 2069 559 
Q 1816 -41 1247 -41 
Q 969 -41 776 114 
Q 584 269 531 459 
Q 500 566 500 1034 
L 500 2613 
L 119 2613 
L 119 2722 
Q 513 3000 789 3306 
Q 1066 3613 1272 3991 
L 1375 3991 
z
" transform="scale(0.015625)"/>
     </defs>
     <use xlink:href="#TimesNewRomanPS-BoldMT-48"/>
     <use xlink:href="#TimesNewRomanPS-BoldMT-34" transform="translate(77.783203 0)"/>
     <use xlink:href="#TimesNewRomanPS-BoldMT-3a" transform="translate(127.783203 0)"/>
     <use xlink:href="#TimesNewRomanPS-BoldMT-20" transform="translate(161.083984 0)"/>
     <use xlink:href="#TimesNewRomanPS-BoldMT-47" transform="translate(186.083984 0)"/>
     <use xlink:href="#TimesNewRomanPS-BoldMT-44" transform="translate(263.867188 0)"/>
     <use xlink:href="#TimesNewRomanPS-BoldMT-50" transform="translate(336.083984 0)"/>
     <use xlink:href="#TimesNewRomanPS-BoldMT-52" transform="translate(397.167969 0)"/>
     <use xlink:href="#TimesNewRomanPS-BoldMT-2f" transform="translate(469.384766 0)"/>
     <use xlink:href="#TimesNewRomanPS-BoldMT-48" transform="translate(497.167969 0)"/>
     <use xlink:href="#TimesNewRomanPS-BoldMT-49" transform="translate(574.951172 0)"/>
     <use xlink:href="#TimesNewRomanPS-BoldMT-50" transform="translate(613.867188 0)"/>
     <use xlink:href="#TimesNewRomanPS-BoldMT-41" transform="translate(667.576172 0)"/>
     <use xlink:href="#TimesNewRomanPS-BoldMT-41" transform="translate(739.792969 0)"/>
     <use xlink:href="#TimesNewRomanPS-BoldMT-20" transform="translate(806.509766 0)"/>
     <use xlink:href="#TimesNewRomanPS-BoldMT-43" transform="translate(831.509766 0)"/>
     <use xlink:href="#TimesNewRomanPS-BoldMT-6f" transform="translate(903.726562 0)"/>
     <use xlink:href="#TimesNewRomanPS-BoldMT-6d" transform="translate(953.726562 0)"/>
     <use xlink:href="#TimesNewRomanPS-BoldMT-70" transform="translate(1037.027344 0)"/>
     <use xlink:href="#TimesNewRomanPS-BoldMT-6c" transform="translate(1092.642578 0)"/>
     <use xlink:href="#TimesNewRomanPS-BoldMT-69" transform="translate(1120.425781 0)"/>
     <use xlink:href="#TimesNewRomanPS-BoldMT-61" transform="translate(1148.208984 0)"/>
     <use xlink:href="#TimesNewRomanPS-BoldMT-6e" transform="translate(1198.208984 0)"/>
     <use xlink:href="#TimesNewRomanPS-BoldMT-63" transform="translate(1253.824219 0)"/>
     <use xlink:href="#TimesNewRomanPS-BoldMT-65" transform="translate(1298.208984 0)"/>
     <use xlink:href="#TimesNewRomanPS-BoldMT-20" transform="translate(1342.59375 0)"/>
     <use xlink:href="#TimesNewRomanPS-BoldMT-52" transform="translate(1367.59375 0)"/>
     <use xlink:href="#TimesNewRomanPS-BoldMT-61" transform="translate(1439.810547 0)"/>
     <use xlink:href="#TimesNewRomanPS-BoldMT-64" transform="translate(1489.810547 0)"/>
     <use xlink:href="#TimesNewRomanPS-BoldMT-61" transform="translate(1545.425781 0)"/>
     <use xlink:href="#TimesNewRomanPS-BoldMT-72" transform="translate(1595.425781 0)"/>
     <use xlink:href="#TimesNewRomanPS-BoldMT-20" transform="translate(1638.060547 0)"/>
     <use xlink:href="#TimesNewRomanPS-BoldMT-43" transform="translate(1663.060547 0)"/>
     <use xlink:href="#TimesNewRomanPS-BoldMT-68" transform="translate(1735.277344 0)"/>
     <use xlink:href="#TimesNewRomanPS-BoldMT-61" transform="translate(1790.892578 0)"/>
     <use xlink:href="#TimesNewRomanPS-BoldMT-72" transform="translate(1840.892578 0)"/>
     <use xlink:href="#TimesNewRomanPS-BoldMT-74" transform="translate(1885.277344 0)"/>
    </g>
    <!-- Overall Score: 99% -->
    <g transform="translate(248.881328 34.1815) scale(0.16 -0.16)">
     <defs>
      <path id="TimesNewRomanPS-BoldMT-4f" d="M 2472 4297 
Q 3484 4334 4117 3706 
Q 4750 3078 4750 2134 
Q 4750 1328 4278 716 
Q 3653 -97 2513 -97 
Q 1369 -97 744 678 
Q 250 1291 250 2131 
Q 250 3075 892 3704 
Q 1534 4334 2472 4297 
z
M 2509 4097 
Q 1928 4097 1625 3503 
Q 1378 3016 1378 2103 
Q 1378 1019 1759 500 
Q 2025 138 2503 138 
Q 2825 138 3041 294 
Q 3316 494 3469 933 
Q 3622 1372 3622 2078 
Q 3622 2919 3465 3336 
Q 3309 3753 3067 3925 
Q 2825 4097 2509 4097 
z
" transform="scale(0.015625)"/>
      <path id="TimesNewRomanPS-BoldMT-76" d="M 1534 -88 
L 550 2178 
Q 372 2588 272 2697 
Q 200 2778 59 2806 
L 59 2922 
L 1613 2922 
L 1613 2806 
Q 1466 2806 1413 2753 
Q 1338 2684 1338 2591 
Q 1338 2475 1475 2156 
L 1956 1059 
L 2341 2006 
Q 2506 2413 2506 2581 
Q 2506 2678 2436 2739 
Q 2366 2800 2188 2806 
L 2188 2922 
L 3144 2922 
L 3144 2806 
Q 3006 2788 2918 2703 
Q 2831 2619 2656 2206 
L 1681 -88 
L 1534 -88 
z
" transform="scale(0.015625)"/>
      <path id="TimesNewRomanPS-BoldMT-53" d="M 3006 4334 
L 3041 2922 
L 2913 2922 
Q 2822 3453 2467 3776 
Q 2113 4100 1700 4100 
Q 1381 4100 1195 3929 
Q 1009 3759 1009 3538 
Q 1009 3397 1075 3288 
Q 1166 3141 1366 2997 
Q 1513 2894 2044 2631 
Q 2788 2266 3047 1941 
Q 3303 1616 3303 1197 
Q 3303 666 2889 283 
Q 2475 -100 1838 -100 
Q 1638 -100 1459 -59 
Q 1281 -19 1013 94 
Q 863 156 766 156 
Q 684 156 593 93 
Q 503 31 447 -97 
L 331 -97 
L 331 1503 
L 447 1503 
Q 584 828 976 473 
Q 1369 119 1822 119 
Q 2172 119 2380 309 
Q 2588 500 2588 753 
Q 2588 903 2508 1043 
Q 2428 1184 2265 1311 
Q 2103 1438 1691 1641 
Q 1113 1925 859 2125 
Q 606 2325 470 2572 
Q 334 2819 334 3116 
Q 334 3622 706 3978 
Q 1078 4334 1644 4334 
Q 1850 4334 2044 4284 
Q 2191 4247 2402 4145 
Q 2613 4044 2697 4044 
Q 2778 4044 2825 4094 
Q 2872 4144 2913 4334 
L 3006 4334 
z
" transform="scale(0.015625)"/>
      <path id="TimesNewRomanPS-BoldMT-39" d="M 197 -88 
L 197 0 
Q 716 119 1077 350 
Q 1438 581 1648 922 
Q 1859 1263 1944 1706 
Q 1750 1606 1614 1567 
Q 1478 1528 1328 1528 
Q 847 1528 526 1875 
Q 206 2222 206 2825 
Q 206 3244 379 3592 
Q 553 3941 875 4133 
Q 1197 4325 1544 4325 
Q 1916 4325 2247 4112 
Q 2578 3900 2775 3497 
Q 2972 3094 2972 2578 
Q 2972 1909 2651 1296 
Q 2331 684 1697 314 
Q 1063 -56 197 -88 
z
M 1991 1969 
Q 2022 2319 2022 2584 
Q 2022 3153 1891 3644 
Q 1816 3916 1669 4044 
Q 1591 4113 1466 4113 
Q 1309 4113 1222 3978 
Q 1100 3794 1100 3275 
Q 1100 2409 1306 2081 
Q 1441 1869 1669 1869 
Q 1791 1869 1991 1969 
z
" transform="scale(0.015625)"/>
      <path id="TimesNewRomanPS-BoldMT-25" d="M 4916 4334 
L 1906 -178 
L 1488 -178 
L 4494 4334 
L 4916 4334 
z
M 1494 4334 
Q 1938 4334 2242 4020 
Q 2547 3706 2547 3209 
Q 2547 2700 2240 2383 
Q 1934 2066 1481 2066 
Q 1034 2066 739 2372 
Q 444 2678 444 3178 
Q 444 3694 747 4014 
Q 1050 4334 1494 4334 
z
M 1494 4169 
Q 1425 4169 1381 4128 
Q 1303 4056 1264 3879 
Q 1225 3703 1225 3150 
Q 1225 2709 1278 2469 
Q 1309 2331 1384 2263 
Q 1431 2222 1494 2222 
Q 1563 2222 1603 2259 
Q 1675 2325 1709 2472 
Q 1763 2709 1763 3138 
Q 1763 3663 1713 3897 
Q 1678 4059 1600 4134 
Q 1563 4169 1494 4169 
z
M 4894 2097 
Q 5347 2097 5651 1786 
Q 5956 1475 5956 972 
Q 5956 463 5647 144 
Q 5338 -175 4900 -175 
Q 4466 -175 4161 144 
Q 3856 463 3856 963 
Q 3856 1466 4153 1781 
Q 4450 2097 4894 2097 
z
M 4903 1934 
Q 4841 1934 4797 1897 
Q 4722 1828 4681 1658 
Q 4641 1488 4641 1006 
Q 4641 494 4688 269 
Q 4722 109 4803 38 
Q 4844 0 4909 0 
Q 4969 0 5006 34 
Q 5084 106 5122 269 
Q 5175 497 5175 959 
Q 5175 1447 5125 1672 
Q 5088 1834 5013 1900 
Q 4975 1934 4903 1934 
z
" transform="scale(0.015625)"/>
     </defs>
     <use xlink:href="#TimesNewRomanPS-BoldMT-4f"/>
     <use xlink:href="#TimesNewRomanPS-BoldMT-76" transform="translate(77.783203 0)"/>
     <use xlink:href="#TimesNewRomanPS-BoldMT-65" transform="translate(127.783203 0)"/>
     <use xlink:href="#TimesNewRomanPS-BoldMT-72" transform="translate(172.167969 0)"/>
     <use xlink:href="#TimesNewRomanPS-BoldMT-61" transform="translate(216.552734 0)"/>
     <use xlink:href="#TimesNewRomanPS-BoldMT-6c" transform="translate(266.552734 0)"/>
     <use xlink:href="#TimesNewRomanPS-BoldMT-6c" transform="translate(294.335938 0)"/>
     <use xlink:href="#TimesNewRomanPS-BoldMT-20" transform="translate(322.119141 0)"/>
     <use xlink:href="#TimesNewRomanPS-BoldMT-53" transform="translate(347.119141 0)"/>
     <use xlink:href="#TimesNewRomanPS-BoldMT-63" transform="translate(402.734375 0)"/>
     <use xlink:href="#TimesNewRomanPS-BoldMT-6f" transform="translate(447.119141 0)"/>
     <use xlink:href="#TimesNewRomanPS-BoldMT-72" transform="translate(497.119141 0)"/>
     <use xlink:href="#TimesNewRomanPS-BoldMT-65" transform="translate(539.753906 0)"/>
     <use xlink:href="#TimesNewRomanPS-BoldMT-3a" transform="translate(584.138672 0)"/>
     <use xlink:href="#TimesNewRomanPS-BoldMT-20" transform="translate(617.439453 0)"/>
     <use xlink:href="#TimesNewRomanPS-BoldMT-39" transform="translate(642.439453 0)"/>
     <use xlink:href="#TimesNewRomanPS-BoldMT-39" transform="translate(692.439453 0)"/>
     <use xlink:href="#TimesNewRomanPS-BoldMT-25" transform="translate(742.439453 0)"/>
    </g>
   </g>
   <g id="legend_1">
    <g id="patch_5">
     <path d="M 658.918984 48.668063 
L 752.097578 48.668063 
Q 754.297578 48.668063 754.297578 46.468063 
L 754.297578 16.4415 
Q 754.297578 14.2415 752.097578 14.2415 
L 658.918984 14.2415 
Q 656.718984 14.2415 656.718984 16.4415 
L 656.718984 46.468063 
Q 656.718984 48.668063 658.918984 48.668063 
z
" style="fill: #ffffff; opacity: 0.95; stroke: #cccccc; stroke-linejoin: miter"/>
    </g>
    <g id="line2d_17">
     <path d="M 661.118984 22.4915 
L 672.118984 22.4915 
L 683.118984 22.4915 
" style="fill: none; stroke: #06a77d; stroke-width: 2; stroke-linecap: square"/>
     <g>
      <use xlink:href="#ma6939c935f" x="672.118984" y="22.4915" style="fill: #06a77d; stroke: #06a77d"/>
     </g>
    </g>
    <g id="text_16">
     <!-- Achieved -->
     <g transform="translate(691.918984 26.3415) scale(0.11 -0.11)">
      <defs>
       <path id="TimesNewRomanPSMT-76" d="M 53 2863 
L 1400 2863 
L 1400 2747 
L 1313 2747 
Q 1191 2747 1127 2687 
Q 1063 2628 1063 2528 
Q 1063 2419 1128 2269 
L 1794 688 
L 2463 2328 
Q 2534 2503 2534 2594 
Q 2534 2638 2509 2666 
Q 2475 2713 2422 2730 
Q 2369 2747 2206 2747 
L 2206 2863 
L 3141 2863 
L 3141 2747 
Q 2978 2734 2916 2681 
Q 2806 2588 2719 2369 
L 1703 -88 
L 1575 -88 
L 553 2328 
Q 484 2497 421 2570 
Q 359 2644 263 2694 
Q 209 2722 53 2747 
L 53 2863 
z
" transform="scale(0.015625)"/>
      </defs>
      <use xlink:href="#TimesNewRomanPSMT-41"/>
      <use xlink:href="#TimesNewRomanPSMT-63" transform="translate(72.216797 0)"/>
      <use xlink:href="#TimesNewRomanPSMT-68" transform="translate(116.601562 0)"/>
      <use xlink:href="#TimesNewRomanPSMT-69" transform="translate(166.601562 0)"/>
      <use xlink:href="#TimesNewRomanPSMT-65" transform="translate(194.384766 0)"/>
      <use xlink:href="#TimesNewRomanPSMT-76" transform="translate(238.769531 0)"/>
      <use xlink:href="#TimesNewRomanPSMT-65" transform="translate(288.769531 0)"/>
      <use xlink:href="#TimesNewRomanPSMT-64" transform="translate(333.154297 0)"/>
     </g>
    </g>
    <g id="line2d_18">
     <path d="M 661.118984 38.044469 
L 672.118984 38.044469 
L 683.118984 38.044469 
" style="fill: none; stroke-dasharray: 7.4,3.2; stroke-dashoffset: 0; stroke: #d90429; stroke-opacity: 0.7; stroke-width: 2"/>
    </g>
    <g id="text_17">
     <!-- Target (95%) -->
     <g transform="translate(691.918984 41.894469) scale(0.11 -0.11)">
      <defs>
       <path id="TimesNewRomanPSMT-28" d="M 1988 -1253 
L 1988 -1369 
Q 1516 -1131 1200 -813 
Q 750 -359 506 256 
Q 263 872 263 1534 
Q 263 2503 741 3301 
Q 1219 4100 1988 4444 
L 1988 4313 
Q 1603 4100 1356 3731 
Q 1109 3363 987 2797 
Q 866 2231 866 1616 
Q 866 947 969 400 
Q 1050 -31 1165 -292 
Q 1281 -553 1476 -793 
Q 1672 -1034 1988 -1253 
z
" transform="scale(0.015625)"/>
       <path id="TimesNewRomanPSMT-29" d="M 144 4313 
L 144 4444 
Q 619 4209 934 3891 
Q 1381 3434 1625 2820 
Q 1869 2206 1869 1541 
Q 1869 572 1392 -226 
Q 916 -1025 144 -1369 
L 144 -1253 
Q 528 -1038 776 -670 
Q 1025 -303 1145 264 
Q 1266 831 1266 1447 
Q 1266 2113 1163 2663 
Q 1084 3094 967 3353 
Q 850 3613 656 3853 
Q 463 4094 144 4313 
z
" transform="scale(0.015625)"/>
      </defs>
      <use xlink:href="#TimesNewRomanPSMT-54"/>
      <use xlink:href="#TimesNewRomanPSMT-61" transform="translate(54.083984 0)"/>
      <use xlink:href="#TimesNewRomanPSMT-72" transform="translate(98.46875 0)"/>
      <use xlink:href="#TimesNewRomanPSMT-67" transform="translate(130.019531 0)"/>
      <use xlink:href="#TimesNewRomanPSMT-65" transform="translate(180.019531 0)"/>
      <use xlink:href="#TimesNewRomanPSMT-74" transform="translate(224.404297 0)"/>
      <use xlink:href="#TimesNewRomanPSMT-20" transform="translate(252.1875 0)"/>
      <use xlink:href="#TimesNewRomanPSMT-28" transform="translate(277.1875 0)"/>
      <use xlink:href="#TimesNewRomanPSMT-39" transform="translate(310.488281 0)"/>
      <use xlink:href="#TimesNewRomanPSMT-35" transform="translate(360.488281 0)"/>
      <use xlink:href="#TimesNewRomanPSMT-25" transform="translate(410.488281 0)"/>
      <use xlink:href="#TimesNewRomanPSMT-29" transform="translate(493.789062 0)"/>
     </g>
    </g>
   </g>
  </g>
 </g>
 <defs>
  <clipPath id="p99201439d6">
   <path d="M 593.477578 341.3815 
C 593.477578 304.97993 586.307262 268.932318 572.376985 235.301653 
C 558.446707 201.670987 538.027375 171.111298 512.287578 145.3715 
C 486.547781 119.631703 455.988091 99.212372 422.357426 85.282094 
C 388.72676 71.351816 352.679149 64.1815 316.277578 64.1815 
C 279.876008 64.1815 243.828397 71.351816 210.197731 85.282094 
C 176.567065 99.212372 146.007376 119.631703 120.267578 145.3715 
C 94.527781 171.111298 74.10845 201.670987 60.178172 235.301653 
C 46.247894 268.932318 39.077578 304.97993 39.077578 341.3815 
C 39.077578 377.78307 46.247894 413.830682 60.178172 447.461347 
C 74.10845 481.092013 94.527781 511.651702 120.267578 537.3915 
C 146.007376 563.131297 176.567065 583.550628 210.197731 597.480906 
C 243.828397 611.411184 279.876008 618.5815 316.277578 618.5815 
C 352.679149 618.5815 388.72676 611.411184 422.357426 597.480906 
C 455.988091 583.550628 486.547781 563.131297 512.287578 537.3915 
C 538.027375 511.651702 558.446707 481.092013 572.376985 447.461347 
C 586.307262 413.830682 593.477578 377.78307 593.477578 341.3815 
M 316.277578 341.3815 
C 316.277578 341.3815 316.277578 341.3815 316.277578 341.3815 
C 316.277578 341.3815 316.277578 341.3815 316.277578 341.3815 
C 316.277578 341.3815 316.277578 341.3815 316.277578 341.3815 
C 316.277578 341.3815 316.277578 341.3815 316.277578 341.3815 
C 316.277578 341.3815 316.277578 341.3815 316.277578 341.3815 
C 316.277578 341.3815 316.277578 341.3815 316.277578 341.3815 
C 316.277578 341.3815 316.277578 341.3815 316.277578 341.3815 
C 316.277578 341.3815 316.277578 341.3815 316.277578 341.3815 
C 316.277578 341.3815 316.277578 341.3815 316.277578 341.3815 
C 316.277578 341.3815 316.277578 341.3815 316.277578 341.3815 
C 316.277578 341.3815 316.277578 341.3815 316.277578 341.3815 
C 316.277578 341.3815 316.277578 341.3815 316.277578 341.3815 
C 316.277578 341.3815 316.277578 341.3815 316.277578 341.3815 
C 316.277578 341.3815 316.277578 341.3815 316.277578 341.3815 
C 316.277578 341.3815 316.277578 341.3815 316.277578 341.3815 
C 316.277578 341.3815 316.277578 341.3815 316.277578 341.3815 
z
"/>
  </clipPath>
 </defs>
</svg>
